<?xml version="1.0" encoding="utf-8"?>
<!-- Generator: Adobe Illustrator 19.1.0, SVG Export Plug-In . SVG Version: 6.00 Build 0)  -->
<!DOCTYPE svg PUBLIC "-//W3C//DTD SVG 1.1//EN" "http://www.w3.org/Graphics/SVG/1.1/DTD/svg11.dtd">
<svg version="1.1" id="Layer_1" xmlns="http://www.w3.org/2000/svg" xmlns:xlink="http://www.w3.org/1999/xlink" x="0px" y="0px"
	 width="253px" height="566px" viewBox="0 0 253 566" style="enable-background:new 0 0 253 566;" xml:space="preserve">
<path d="M32.4,267.6h188.2c0,0,14-1.6,14.8-29.5c0,0,1.6-16.3-23.3-24.1c0,0,13.2-6.2,9.3-23.3c0,0-7-15.6-26.4-15.6
	c0,0,10.9-7,10.1-23.3c0,0-2.3-14.8-26.4-20.2c0,0,9.3-3.9,9.3-17.1c0,0,2.3-14-19.4-21c0,0-62.2-18.7-44.3-59.1
	c0,0-38.9,9.3-28,66.9c0,0-28,3.1-14.8,36.5c0,0-39.7,1.6-26.4,36.5c0,0-35.8,7-22.5,47.4C32.4,221.8-1,242,32.4,267.6z"/>
<path d="M31.7,270.1h190.5l-10.9,94.9l-21,11.7l-21,139.2c0,0-42.8,28.8-85.5,0L64.3,378.2l-22.5-10.9L31.7,270.1z"/>
<g>
</g>
<g>
</g>
<g>
</g>
<g>
</g>
<g>
</g>
<g>
</g>
</svg>
