<?xml version="1.0" encoding="utf-8"?>
<!-- Generator: Adobe Illustrator 19.1.0, SVG Export Plug-In . SVG Version: 6.00 Build 0)  -->
<!DOCTYPE svg PUBLIC "-//W3C//DTD SVG 1.1//EN" "http://www.w3.org/Graphics/SVG/1.1/DTD/svg11.dtd">
<svg version="1.1" id="Layer_1" xmlns="http://www.w3.org/2000/svg" xmlns:xlink="http://www.w3.org/1999/xlink" x="0px" y="0px"
	 width="253px" height="566px" viewBox="0 0 253 566" style="enable-background:new 0 0 253 566;" xml:space="preserve">
<style type="text/css">
	.st0{fill:#FFFFFF;}
</style>
<g>
	<path class="st0" d="M150.4,367.3c2.6,0,4.5,0,6.3,0c15.5,0,31,0,46.5,0c18.4-0.1,30.2-12,30.2-30.4c0-68.8,0.1-137.6-0.1-206.5
		c0-6.3-0.6-12.7-1.9-18.8c-11.6-53.9-59.4-88.1-114.1-81.9C66.6,35.5,27,79.8,26.9,130.9c0,68.7,0,137.3,0,206
		c0,18.6,11.9,30.5,30.6,30.5c17,0,34,0,51,0c1.7,0,3.5,0.2,5.5,0.3c0,2.5,0,4.5,0,6.5c0,50.2,0,100.3,0,150.5c0,1.3,0,2.7,0,4
		c0.3,6.6,4.4,10.8,11.1,11.1c3.7,0.1,7.3,0,11,0c10.9,0,14.3-3.3,14.3-14.3c0-50.3,0-100.7,0-151
		C150.4,372.3,150.4,370.2,150.4,367.3z"/>
	<path d="M150.4,367.3c0,2.9,0,5,0,7.1c0,50.3,0,100.7,0,151c0,10.9-3.3,14.3-14.3,14.3c-3.7,0-7.3,0.1-11,0
		c-6.6-0.2-10.8-4.4-11.1-11.1c-0.1-1.3,0-2.7,0-4c0-50.2,0-100.3,0-150.5c0-2,0-4,0-6.5c-2-0.1-3.8-0.3-5.5-0.3c-17,0-34,0-51,0
		c-18.8,0-30.6-11.9-30.6-30.5c0-68.7,0-137.3,0-206c0-51,39.7-95.4,90.4-101.1c54.7-6.2,102.5,28,114.1,81.9
		c1.3,6.1,1.9,12.5,1.9,18.8c0.1,68.8,0.1,137.6,0.1,206.5c0,18.4-11.9,30.3-30.2,30.4c-15.5,0-31,0-46.5,0
		C154.9,367.3,153.1,367.3,150.4,367.3z"/>
</g>
<g>
</g>
<g>
</g>
<g>
</g>
<g>
</g>
<g>
</g>
<g>
</g>
</svg>
