<?xml version="1.0" encoding="utf-8"?>
<!-- Generator: Adobe Illustrator 19.1.0, SVG Export Plug-In . SVG Version: 6.00 Build 0)  -->
<!DOCTYPE svg PUBLIC "-//W3C//DTD SVG 1.1//EN" "http://www.w3.org/Graphics/SVG/1.1/DTD/svg11.dtd">
<svg version="1.1" xmlns="http://www.w3.org/2000/svg" xmlns:xlink="http://www.w3.org/1999/xlink" x="0px" y="0px"
	 width="1271.2px" height="401.9px" viewBox="0 0 1271.2 401.9" style="enable-background:new 0 0 1271.2 401.9;"
	 xml:space="preserve">
<style type="text/css">
	.st0{fill:#4DC8F0;}
</style>
<g id="Layer_4">
	<g>
		<path class="st0" d="M377.7,207.8c0,0.8-0.4,1.7-1.3,2.8c-1,1.4-2.3,2.4-3.8,3.2c-0.5,0.5-1.1,0.7-1.7,0.8
			c-1.2,0.8-2.3,1.2-3.4,1.3c-0.5,0.5-1.2,0.9-2.3,1.3h-1.8l-1.8,1.4l-1.9-0.4l-0.6,0.1l-1.5,0.2c-1,0.1-1.8,0.2-2.4,0.2
			c-0.1,0-0.4,0-0.7-0.1c-0.3,0-0.6,0-0.8,0l-1.4,0.5l-2,0.2h-2.2l-1.1,0.6l0.3,0.4c-1.5,0-2.7,0-3.5,0.1l-0.5-0.1l-4-0.4l-5.7-0.2
			l-1.9-0.4c-0.6,0.4-1.3,0.6-2.1,0.6c-0.9,0-1.9-0.3-2.8-0.9l-1.9,0.7l-1-0.9c-2.7-0.1-4.3-0.3-4.8-0.8l-0.4-0.2
			c0.2,0-0.4,0.1-1.7,0.2l-3.8-2.5l-1.8-0.4c-1.1-0.5-2.1-1.4-2.8-2.7c-0.7-1.1-1-2.2-1-3.2c0-0.7,0.3-2,1-3.8l2-2.2l2.3,0.1
			c0.5-0.7,1.3-1.1,2.2-1.1c2.1,0,3.1,1.7,3.1,5.1c-1.4,0.3-2.2,0.6-2.4,0.8c-0.3,0.4-0.8,0.8-1.5,1.3v0.3l0.9,0.5l1.2,1.2l3.8-0.2
			l3.2,1l5.1-0.1l1.9,1.3l0.9-0.6c0.4,0,0.9,0.1,1.5,0.4l2.5,0.4l0.2,0.6h1.6c1.5-0.5,2.3-0.8,2.5-0.8c0.3,0,0.7,0,1.2,0
			c0.6,0,1.3,0,2.3,0c0.7,0,1.2,0,1.8,0c0.5,0,1,0,1.6,0c0.7,0,1.3,0,1.9,0l2.2-0.6l1.1-1.1l3.7,0.4c1.9-0.6,3.4-0.9,4.5-0.9h0.5
			c0.5-0.3,0.8-0.5,1.2-0.5c0.2,0,0.4,0.1,0.7,0.2l1-0.4v-0.8h2.1c0.5-0.6,1.3-0.9,2.4-1c0.9-0.8,1.7-1.3,2.2-1.4l0.8-1.2
			c0-0.6-2.1-1.9-6.3-3.8l-0.8-0.6c-1.4-0.1-2.4-0.4-3.2-0.7c-0.5,0-0.9,0-1.3-0.1h-0.2c-0.3,0-1.6-0.4-3.8-1.2
			c-0.7-0.5-1.5-0.8-2.2-0.8c-0.3,0-0.7,0.1-1.2,0.2h-2l-0.3-0.3c-1-0.2-1.9-0.5-2.4-0.9l-1.2,0.4l-3-1.5h-2l-1.3-0.8h-2l-0.3-0.5
			H336l-1.4-1.6h-0.7c-2,0-3.6-0.4-4.7-1.2l-0.2-0.2c-1.4-0.5-2.5-1.2-3.1-2.1l-1.7-1.6l-1.1-2.5l-1.2-1.5l0.5-4l2.3-2.7
			c0.4-0.1,0.7-0.5,0.9-1.3c0.2-0.1,0.5-0.2,1-0.5l5-2.7c0.7,0,1.1,0,1.4,0c0.9,0,1.9-0.3,2.8-1h0.6v0.2l1-0.9h0.5
			c2.1-0.8,3.8-1.2,5.2-1.2h0.5l0.9,0.1l1.5-0.9c0.4-0.1,0.9-0.1,1.6-0.1h0.6c0.5,0,1.3-0.1,2.4-0.2c1.1-0.1,2-0.2,2.7-0.3l1.8-0.1
			l2.6-1.4c0.2,0.1,0.6,0.6,1.3,1.5h2.2c0.4,0,1.1,0.2,2.2,0.5h0.7c1.6,0,2.9,0.3,3.9,1c3.5,0.9,5.2,2.6,5.2,5.2
			c0,2.2-1.8,3.6-5.4,4l-0.8-1.2c-0.2-0.1-0.5-0.2-1-0.4c-0.5-0.2-0.9-0.3-1.1-0.4h-2.2l-1-1.1l-1.6,0.2l-0.9,1l-2.3-1.7l-2.5,0.4
			l-3-0.7c-1.9,0.1-3.5,0.5-4.8,1.2l-0.2,0.1c-0.2,0.1-0.4,0.2-0.6,0.3c-0.2,0.1-0.4,0.1-0.4,0.1l-1.4-0.6L341,179l-5.1,1.4
			l-1.2-0.3l-2.2,1.4h-1l-0.6,0.9l-2.1,1.4l0.2,0.6l1.1,1.1l1,0.3l1.6,1l3,1.1l1.5,0.1l2.6,1.6l0.8-0.3c1.9,0.4,3.2,0.9,3.8,1.6
			l0.3,0.3h0.2l2,1.2l0.7-0.7l2.3,0.3h0.4h1.4l1.4,1.1h0.7c1.1,0,2.1,0.1,2.9,0.4c0.1,0,0.4,0,1,0c1.2,0,2.5,0.6,3.9,1.7l1.2-0.4
			l0.9,0.4h1.7l2.8,2l2.9,0.3l1.2,1.6c2.2,1.4,3.7,2.6,4.4,3.6c0.7,1,1,2.5,1,4.4c0,0.1,0,0.3,0.1,0.6
			C377.7,207.4,377.7,207.6,377.7,207.8z"/>
		<path class="st0" d="M441.2,187.3c0,1.5-0.5,2.9-1.4,4.1c-1.8,0.7-3.2,1.1-4.4,1.1c-0.3,0-0.6-0.1-1.1-0.2
			c-0.5-0.1-0.8-0.2-0.9-0.2l-2.5,1.3l-2.3-0.2l-1.4,0.5l-0.7-0.2l-1.8,1l-1.5-0.4c-1.8,0-3.2,0-4.2,0h0.4l-1.8,0.5h-0.3l-0.7,0.7
			l-1.4-0.5l-0.8,0.5l-2.2-0.7l-1.3,0.7c-1.6-0.4-2.5-0.6-2.7-0.6c-0.7,0-1.6,0.2-2.7,0.7l-4.4,0.4l-0.4-0.5l-1.7,0.4l-0.1,0.6
			l0.9,4.9l-0.2,0.5l0.3,1v1.3c0.3,1,0.6,2,0.7,2.9l1.2,1.2l-0.2,0.6l2,2.4c2,1.4,3.6,2.1,4.6,2.1h0.2c0.1,0,0.3,0,0.5-0.1
			c0.2,0,0.3,0,0.4,0c0.3,0,0.6,0.1,1.1,0.3l0.9-0.1c0.8-0.2,2.1-0.4,3.6-0.7l1.1-0.6l0.2-0.4l0.7-0.1l0.8-0.5l0.5,0.3l1.6-0.5
			l1.3-0.8l0.5-0.7l1.7-1.3l1.3-0.2l2.3-1.8c1.6-0.3,2.8-1.6,3.5-3.9l0.3,0.1l0.1-0.3l1.3-0.1l1.9-1.6l0.7-0.1
			c0.2-0.1,0.4-0.1,0.7-0.1c1.2,0,2,1.2,2.2,3.6l-4.3,5.1l-1.1,0.3l-0.4,0.6l-1.9,2l-2.6,1.6l-2.2,2.1l-0.7-0.1l-0.8,0.8l-4.4,1.7
			l-1.8,2l-1.3-0.5l-0.5,0.9l-0.9-0.3l-0.5,0.5l-3.2-0.6l-3.3,1.4l-3.3-1.1l-4.2-2c-3.6-1.7-6.4-6.4-8.3-14.1v-1.1l-0.8-2.2l0.8-1
			l-0.5-2.7l-0.1-0.9l-1.7-1.9v-1.2c0-1.9,0.5-3.2,1.6-3.9c0.2-0.5,0.6-1,1.1-1.5l-0.4-0.3v-2.7v-1.4l1.2-3.1l0.3-1.6l-1,0.1H392
			c-0.9,0-1.7-0.3-2.3-0.9c-0.7-0.6-1-1.4-1-2.2c0-1,0.6-2.1,1.9-3.3l0.7-0.7l0.9-0.4c1-0.5,1.9-0.7,2.4-0.7h0.5c0.1,0,0.5,0,1,0
			h0.4l1-1.7l4.4,0.3l0.3,0.3c0.6-0.1,1.5-0.2,2.6-0.2l2-0.4h0.5c0.8-0.3,1.7-0.8,2.4-1.6l1.5,0.9h0.5c0.3,0,0.7,0,1.1,0
			c0.4,0,0.7,0,0.8,0l9.8-0.9l1,0.6l1.4-0.3l0.8-0.9l2,1.3l0.7-0.6l2.2,0.9l1.5-0.3l0.8,0.3l3.1-0.3l0.7,0.5l1.6,0.3
			c1.5,0.3,2.2,1,2.2,2.2c0,0.8-0.3,1.5-0.8,2.1c-0.6,0.6-1.1,0.9-1.7,0.9h-0.4l-1.1,0.6l-2-0.6l-0.9,0.1c-0.2,0.1-0.5,0.1-0.8,0.1
			c-0.7,0-1.2-0.1-1.8-0.4l-0.3-0.4c-0.7,0.1-1.1,0.2-1.3,0.2c-0.3,0-0.6-0.1-1-0.2c-0.7,0.5-1.9,0.8-3.6,1.2c-0.9,0-1.9,0-3-0.1
			c0-0.1,0.1-0.3,0.4-0.7l-2.5,0.8c-0.1,0-0.1,0-0.2,0c-0.5,0-1.3,0.5-2.5,1.4l-1.3-0.6l-0.6,0.4l-2.3-0.7l-1.4,0.7h-2l-2.9,0.6
			l-2.4,1.1l-0.7-0.4l-1.3,0.9h-1.3l-0.3,0.5l0.3,1.2l-1.7,2l0.8,0.1l0,2.7l1.1,1.2l-0.9,0.8c-0.7,1.1-1,1.9-1,2.2
			c0,0.3,0.2,0.5,0.6,0.6l1.2-0.4c0.3-0.1,0.7-0.1,1-0.1c1,0.1,1.7,0.3,2.2,0.4l1.8-0.7l1.6,0.3h0.9h1.1h1.6c0.5,0,0.9,0,1.3,0
			c0.3,0,0.8-0.2,1.6-0.7c0.5,0.3,1.3,0.4,2.2,0.4c0.1,0,0.4,0,0.7-0.1c0.3,0,0.6,0,0.8,0h0.2c-0.1,0-0.3,0-0.4-0.1h0.3
			c0.4,0,1.6,0.2,3.5,0.5c0.2-0.1,1.2-0.2,3-0.3c1-0.1,1.7-0.2,2-0.2c1,0,1.9,0,2.8,0.1l0.9-0.1c0.9-0.5,1.8-0.8,2.5-0.8
			c0.6,0,1.2,0.1,1.8,0.3l1.4-0.3l1.2,0.5l3.9-1V187.3z"/>
		<path class="st0" d="M512.7,220.8c-0.1,1.6-1.1,2.8-3.2,3.4l-3.7-1.8h-1.1l-1.3-1h-1.6l-1.2-2l-1-0.5l-1.3-2.2l-1.8-1.9v-0.8
			l-0.8-0.7l-0.2-1.6l-1.3-1.2l-2.1-4.6l-0.9-1.1l-0.4-2.7l-1.3-1.7l-2.1-0.3l-2.2,1.3l-0.5-0.5l-1.6,1l-0.5-1.1
			c-0.3,0.1-0.8,0.1-1.5,0.1c-0.7,0-1.2,0-1.6-0.1h-0.8l-2.1,1.1l-2.2-0.3h-0.4l-1.6,0.9l-1.3-0.5c-1.2,0-2.2-0.1-2.7-0.4h-0.5
			l-2.5,1.2l-1-1.1l-1.8-0.5l-0.4,0.3c-1.4,1.9-2.5,3.2-3.1,4l-1.6,0.4c-2.5,3.6-4,5.5-4.7,5.8l-0.4,0.1l-3.1,3.8h-0.4l-2,3
			l-3.7,2.1c-0.7,0.1-1.2,0.2-1.6,0.2c-1.2,0-2.4-0.5-3.5-1.4l1.2-2.4v-1.5l0.4-0.5l0.2-2l3-0.4l0.8-0.5c0.8-0.5,1.2-1.1,1.4-2.1
			c1.2-0.3,1.9-1,2.2-2c1.8-0.9,2.9-2.3,3.4-4.3l1.7-0.6l2.4-3.6c-0.5-0.7-0.9-1.6-1.2-2.7l2.1-1.7v-1.9l3.8,0.3l1-0.5
			c0.3-1.1,1-1.9,2-2.3l0.2-1.9l2.1-1.1c0.2-0.1,0.6-0.3,1.1-0.5v-0.6c0-0.6,0.1-1.1,0.4-1.6c1.4-1,2.1-2.3,2.2-4l1.4-0.3l0.5-0.9
			l0.7-0.1l1.9-3.5h0.5l0.8-0.4V174h0.7c1.6-1.8,2.4-2.9,2.4-3.4l0.5-0.4l-0.5-1.5c1.6-1.9,2.8-2.9,3.8-2.9l1.9-1.6l2.2,2.2l2.7,1.5
			l0.3,2.5c0.3,0.4,0.6,0.8,0.8,1.2c0.9,1.1,1.4,2.2,1.6,3.4l0.6,2.4l1.5,2.2l0.9,3.2l0.2,1.6l1.8,2.2l-0.4,0.7l0.8,0.7v2l0.2,1.5
			c-0.2,1-0.3,1.3-0.3,1.1l0.5,0.5l0.6,0.8c0.8-0.1,1.5-0.2,1.9-0.3h2.9c0.5,0.1,0.9,0.2,1.2,0.2c0.4,0,0.8-0.1,1.2-0.4
			c0.4-0.3,1.1-0.4,2-0.4c0.7,0,1.6,0.3,2.9,1l2.9,0.2c0.1,0.5,0.2,0.9,0.2,1.2c0,1-0.5,1.7-1.5,2.2l-1.5-0.5l-2.7,2l-2.2-0.3
			l-1,0.5l-2.2,0.2v-0.4l-2.5,0.6l-0.1,0.6l0.2,2.2l1.3,1.8l0.2,1.8l2.2,3.1l-0.2,1.1l0.9,0.9l2.3,3.6l1.7,1.7l0.4,0.8l1.8,0.9
			l0.7,1.6L512.7,220.8z M488.5,194.4L488.5,194.4l-1.2-1.1l1.2-1c-0.5-0.5-0.8-1.1-0.8-2l-0.7-0.4l-0.5-4l-1.1-1.7l-0.3-1.7
			l-0.2-0.4h-0.7l-0.3-3.5l-0.9-1.3l-0.5-0.2l-0.3-0.4l-0.4,0.7l-2.3,2.9l-0.8,1.7l-2,1.8l-0.4,1.8l-2.2,1c-0.3,2-1.3,3.4-2.9,4.2
			l-0.7,2l-1.3,1.3h0.9c1.2,0.4,2.2,0.6,2.9,0.6h0.4c0.4-0.2,0.8-0.3,1.2-0.3c0.5,0,1,0.1,1.6,0.4l0.4,0.1c0.4-0.1,1-0.1,1.9-0.1
			c1,0,1.8,0,2.3,0.1l3.4-0.4l2.2,1.2c1.1-0.5,1.8-0.9,2-1.4C488.4,194.3,488.4,194.3,488.5,194.4L488.5,194.4z"/>
		<path class="st0" d="M604,203.1l-0.4,1.2l-0.4,2l-1.8,1.5l-0.4,1.3l-1.2,0.3l-1.3,1.9l-2.2,0.5l-2,1.4l-2.8,0.3l-1.5,1.6h-2.5
			l-1.1,0.7l-1.4-0.2c-1.3,0.9-2.8,1.5-4.6,1.9l-0.7-0.4l-2.8,2.1l-1.1-0.6l-0.7,0.5l-1.8-0.4l-0.7,0.4l-1.8,0.2l-1.4-0.3l-1.8,1.5
			l-2.1-0.9v0.1c-0.1,0.1-0.5,0.3-1.1,0.5l-0.6-0.7c-0.9,0.9-2,1.4-3.2,1.4c-0.1,0-0.3,0-0.5,0c-0.3-0.3-0.5-0.4-0.6-0.4l-1.6,1.7
			l-1.9,0.6l-1.6-0.9l-0.4-1.8l-2.2,0.8c0.1-0.1,0.2-0.2,0.2-0.3c0-0.1,0-0.2,0-0.3c-0.1-0.1-0.1-0.3-0.1-0.4c0-0.2,0.1-0.3,0.4-0.4
			l-1.7-3v-1.7v-2.3l0.5-1.6l-0.5-2.3l0.9-1.6l-0.4-1.3l0.3-2.2c-0.2-0.7-0.4-1.5-0.7-2.3l-0.1-1.4c-2.2-1.1-3.4-2.2-3.6-3.1
			c0.3-1.6,1.3-2.8,2.8-3.7c0.1-0.1,0.4-0.3,1.1-0.7l-0.7-2.2l0.8-0.3l-0.4-1.5l0.3-0.4l-0.6-1.5l0.3-0.8l-0.1-2.2l-1.2-2.3l0.2-1
			l-0.6-0.4v-2.2l-0.5-0.8l-0.7-2.3l-0.1-0.1l-1.1,0.9l-1-0.7l-1.1,0.7l-0.4-0.5l-1.6,1.1l-1-1.5l-1.9,1.2c-3.2-1.9-4.8-3.6-4.8-5
			c0-1.3,0.7-2.1,2.1-2.3c0.7-1,1.6-1.6,2.8-1.6h0.4l1.1,0.5l0.2-0.1c2.9,0,5,0.1,6.3,0.4c1.1-0.3,2.1-0.4,2.9-0.4l0.5,0.4l0.7-0.2
			l2.7,1l5.7,0.7c0.3,0,0.8,0,1.5,0c0.8,0,1.5,0,1.9,0h1.1c1.1,0.1,2,0.4,2.6,0.8l0.8,0.4c1.3,0.2,2.2,0.4,2.6,0.4l2.3-0.4l0.5,0.6
			c0.8,0,1.6,0.3,2.2,1l2.8,0.1l1.2,1.1c0.8,0.3,1.6,0.5,2.2,0.5l2,0.6l0.8,0.8h2.2l0.6,1.4l2.1,1.3l0.7,3l-1.6,2.8
			c-1.4,1.6-2.9,2.6-4.3,2.8l-1.6,0.9l-0.8-0.2l-2.1,1.4c-0.5-0.1-0.8-0.1-1.2-0.1l-2.1,0.7l-0.2-0.1l-1.3,1.7l-1.9,0.3
			c-1.7,0.8-3.4,1.3-5.1,1.3l-2,1.1h-2.1l-1.7,0.9l-1.3,0.2l3.4,1h2l3.2,0.3l3.7-0.6l0.2,0.3c0.5,0,1.1,0,2,0c1.6,0,2.6,0.3,3,1
			c0.5-0.3,1-0.5,1.6-0.5c1.1,0.4,1.9,0.6,2.2,0.6c0.5,0,1.1-0.2,1.9-0.5c0.8,0.5,2.4,0.7,4.8,0.7l0.9,0.5c1.8,0.3,3.2,0.7,4.3,1.2
			h1.6c0.8,0.8,1.7,1.2,2.6,1.2c0.4,0.4,1.5,1.1,3.2,2.2C603.5,201.6,604,202.3,604,203.1z M581.4,180.8V180l-0.3-0.1l-0.7-0.8h-1.1
			l-1-0.5c-0.5-0.1-1-0.3-1.4-0.4l-1.1,0.8l-2-1.5l-1.7-0.5l-0.7,0.4l-1.9-1h-0.5c-0.7,0-1.7-0.1-3.2-0.3l-2.2,0.3l-1.2-1.1
			l-1.1,0.2l-0.4-0.1l-0.6,0.5l-1.9-0.7l-0.4,0.2v2.3l0.5,1.8l-0.5,1.5l0.5,2.2v2l0.6,1.6l-0.6,1.7v0.2h1.6c0.3-0.1,0.8-0.3,1.5-0.4
			l-0.1,0.3l1.2-0.9l0.2-0.8h2.4c2-0.5,3.3-1.1,3.9-1.8h1.2l0.5-0.4c1-1,2.2-1.6,3.3-1.6h0.4c0.3,0,0.6-0.2,0.9-0.5l2.6-0.8h0.3
			C579.5,181.4,580.4,181,581.4,180.8z M595.4,204.3l-0.3-0.2l-1.6-0.2l-0.4-0.5h-0.5l-2.3-1l-1.9,0.2l-0.9-0.8l-2,0.2
			c-0.4-0.3-0.8-0.6-1.3-0.7c-0.6,0.3-1.1,0.5-1.7,0.5c-0.5-0.1-1-0.3-1.6-0.6c-1.1,0-2.3-0.1-3.6-0.3l-3.3-0.1
			c-1.1-0.3-2.1-0.5-3-0.5c-0.4,0-0.9,0.1-1.5,0.2l-2.2,0.5l-1.5-1l-0.1,0.6l-4.3-0.4c-0.6-0.4-1-0.7-1.1-0.8
			c-1.1,0-1.7,0.6-1.7,1.7v0.6v0.9l0.7,1.4l-0.7,1.5l0.4,0.7l-0.2,1.4l0.7,1.1l0.2,1.8l-0.9,1.6l0.1,0.5l0.3,0.2l0.2,1.5l2.7-0.1
			l1.7-0.6l2.8,0.1l0.7,0.3c0.2-0.2,0.5-0.4,1-0.5l1.7-0.8l2.8,0.1l2.8-0.9l2.4-1l1.4,0.1l2.4-1l3.3-0.2c1.6-0.1,2.8-0.6,3.6-1.6
			h1.4l1.1-0.5l0.8-1.1l2.2-0.6l0.7-1.2L595.4,204.3z"/>
		<path class="st0" d="M680.3,217.3l-0.6-0.2l-0.9,1.3l-2.3,0.3l-2,0.7l-2.7-0.6l-0.5,0.2l-1.9,1.3c-0.5-0.4-1-0.7-1.7-1l-1.8,1.7
			l-1.4-1.4l-0.6,0.2c-0.2-0.2-0.4-0.4-0.6-0.6c-0.2-0.2-0.4-0.3-0.4-0.4h-4.2l-0.7-0.8c-0.5-0.1-1.2-0.3-2-0.5
			c-1-0.3-1.9-0.6-2.8-0.9h-1.2l-0.9-1H651c-0.5,0-1.1-0.3-1.7-1c-0.6-0.7-1-1-1.2-1.1c-1.3-0.7-2.6-1.4-4-2.1
			c-1.4-0.7-2.4-1.8-3.1-3.1c-1.4-0.7-2.4-1.5-3.1-2.3l-2.7-2.2l-3.2-3.1l-0.7-0.3l-1.9-1.8l-0.7-0.1l-0.3,0.1
			c-0.4,0.1-0.8,0.2-1.2,0.2c-0.4,0-0.8-0.1-1.3-0.2c-0.5-0.2-0.8-1.2-1-3.2l0.9-1c0.4-1.4,1-2.5,2-3.3l2.7-0.3v0.2
			c0,0.2,0.1,0.4,0.3,0.6h1.4c0.1,0.4,0.6,0.6,1.6,0.6c1,0,2.3-0.1,3.9-0.3v-0.6c0.8,0.1,2,0.2,3.5,0.2c2.1,0,3.8-0.2,5.3-0.5
			l1.3-0.6l2.2-0.4l2.7-0.3l0.4,0.1l0.5-0.2c0.5-0.2,1.4-0.4,2.6-0.7l0.8-0.3l0.9-0.5h0.4l1.1-0.8l2.8-0.9c0.7-0.3,1-0.6,1-0.8
			c0-0.3-0.2-0.5-0.5-0.8l-2.5-2.2l-1-0.2l-0.6-0.4c-0.4-0.4-0.9-0.7-1.7-0.9l-1.3,0l-2.1-0.8l-1.4,0l-1.3-1.2h-2l-1-0.1l-5.6-0.4
			l-0.3-0.1l-0.4,0.1l-1.4-0.3l-0.9,0.2l-3-0.4l-3.2,0.5l-1.7-0.5l-1.6,0.2l-1.2-0.2l-1.5,0.6l-0.8-0.3l-1.5,0.6h-0.7
			c-0.1,0.5-0.2,0.9-0.2,1.2c0,0.1,0,0.3,0.1,0.4c0,0.2,0,0.3,0,0.4l-0.2,4.9c-0.2,0.6-0.2,1.2-0.2,1.8c0,1,0.3,2,1,2.9l-1,1.4
			l0.4,2.6l-0.7,2.6c-0.4,1.4-0.6,2.9-0.6,4.4c0,0.5,0,1.4,0,2.6v2l0.7,5.8l0.2,0.8l-0.9,3.7v0.8c0,1.7-2.1,2.6-6.3,2.6l0.7-5.2
			l-0.4-1l-1.2-5c-0.2-0.5-0.3-1-0.3-1.4c0-0.5,0.2-1.2,0.5-2c-0.4-0.4-0.6-0.8-0.6-1.3c0-0.7,0.3-1.5,0.9-2.5
			c-0.2-0.5-0.3-1.1-0.3-1.8c0-0.3,0-0.9,0-1.7v-1.1c0.7-0.9,1-1.4,1-1.6c0-0.1-0.3-0.7-1-1.9l0.8-2l-0.3-1.7l0.4-0.4l0.1-1l-1-3.9
			l0.5-1.8l-0.5-3.2h-2.3l-2.3,2.6c-0.6-0.9-1.6-1.7-3.1-2.4c-1-0.9-1.6-1.8-1.6-2.8c0-0.9,0.5-1.8,1.4-2.9l2.3-1.5l3.5-0.3h3.3
			c0.7-1.5,2-2.2,4.1-2.2h2.6l0.6,1.7l1.7-0.6l2.7,0.5l3.7-0.5l5.4,0.7h7.3l3.5,0.5h3.5l0.3,0.5h1V173l6.5,2.4l2.6,1.2l2.1,0.2
			l0.8,0.9c2.9,2.2,4.6,4.6,5,7l-0.1,0.5c-0.3,1.2-0.8,2.3-1.8,3.2l-4,4l-2.4,0.2l-0.5,0.2c-1,0.6-2.3,1-3.8,1.2l-0.8,0.7l-3,0.8
			h-0.5c-0.7,0-1.2,0.1-1.6,0.4l-2.3,2.1l-2.1-1.2l-0.3,0.1l-1.1,0.6l-0.7-0.7c-0.1,0.3-0.5,0.7-1,1.2l-1.9-0.7l-1.8,0.7l-0.5-0.4
			l-0.6,0.2l0.3,0.2l0.8,1.1l3.7,2.9l1.1,1.6l1,1l0.6,1.4l2.3,0.1l3.2,3l1.5,0.6l2.1,1.2l2,0.5l2.4,0.9l1.4-0.1l1.2-0.7l0.5,1.3
			l1.7-0.3l0.3,0.6l1.2,0.3l3.3-0.3l1.4,0.3l4.3-0.8l3.1-0.7l0.5-0.9h1.4l1.9-2.2c1.6,1.8,2.3,3.1,2.3,4.1l0.1,0.5
			C685,213.8,683.5,215.2,680.3,217.3z"/>
		<path class="st0" d="M739.6,187.3c0,1.5-0.5,2.9-1.4,4.1c-1.8,0.7-3.2,1.1-4.4,1.1c-0.3,0-0.6-0.1-1.1-0.2
			c-0.5-0.1-0.8-0.2-0.9-0.2l-2.5,1.3l-2.3-0.2l-1.4,0.5l-0.7-0.2l-1.8,1l-1.5-0.4c-1.8,0-3.2,0-4.2,0h0.4l-1.8,0.5h-0.3l-0.7,0.7
			l-1.4-0.5l-0.8,0.5l-2.2-0.7l-1.3,0.7c-1.6-0.4-2.5-0.6-2.7-0.6c-0.7,0-1.6,0.2-2.7,0.7l-4.4,0.4l-0.4-0.5l-1.7,0.4l-0.1,0.6
			l0.9,4.9l-0.2,0.5l0.3,1v1.3c0.3,1,0.6,2,0.7,2.9l1.2,1.2l-0.2,0.6l2,2.4c2,1.4,3.6,2.1,4.6,2.1h0.2c0.1,0,0.3,0,0.5-0.1
			c0.2,0,0.3,0,0.4,0c0.3,0,0.6,0.1,1.1,0.3l0.9-0.1c0.8-0.2,2.1-0.4,3.6-0.7l1.1-0.6l0.2-0.4l0.7-0.1l0.8-0.5l0.5,0.3l1.6-0.5
			l1.3-0.8l0.5-0.7l1.7-1.3l1.3-0.2l2.3-1.8c1.6-0.3,2.8-1.6,3.5-3.9l0.3,0.1l0.1-0.3l1.3-0.1l1.9-1.6l0.7-0.1
			c0.2-0.1,0.4-0.1,0.7-0.1c1.2,0,2,1.2,2.2,3.6l-4.3,5.1l-1.1,0.3l-0.4,0.6l-1.9,2l-2.6,1.6l-2.2,2.1l-0.7-0.1l-0.8,0.8l-4.4,1.7
			l-1.8,2l-1.3-0.5l-0.5,0.9l-0.9-0.3l-0.5,0.5l-3.2-0.6l-3.3,1.4l-3.3-1.1l-4.2-2c-3.6-1.7-6.4-6.4-8.3-14.1v-1.1l-0.8-2.2l0.8-1
			l-0.5-2.7l-0.1-0.9l-1.7-1.9v-1.2c0-1.9,0.5-3.2,1.6-3.9c0.2-0.5,0.6-1,1.1-1.5l-0.4-0.3v-2.7v-1.4l1.2-3.1l0.3-1.6l-1,0.1h-0.4
			c-0.9,0-1.7-0.3-2.3-0.9c-0.7-0.6-1-1.4-1-2.2c0-1,0.6-2.1,1.9-3.3l0.7-0.7l0.9-0.4c1-0.5,1.9-0.7,2.4-0.7h0.5c0.1,0,0.5,0,1,0
			h0.4l1-1.7l4.4,0.3l0.3,0.3c0.6-0.1,1.5-0.2,2.6-0.2l2-0.4h0.5c0.8-0.3,1.7-0.8,2.4-1.6l1.5,0.9h0.5c0.3,0,0.7,0,1.1,0
			c0.4,0,0.7,0,0.8,0l9.8-0.9l1,0.6l1.4-0.3l0.8-0.9l2,1.3l0.7-0.6l2.2,0.9l1.5-0.3l0.8,0.3l3.1-0.3l0.7,0.5l1.6,0.3
			c1.5,0.3,2.2,1,2.2,2.2c0,0.8-0.3,1.5-0.8,2.1c-0.6,0.6-1.1,0.9-1.7,0.9h-0.4l-1.1,0.6l-2-0.6l-0.9,0.1c-0.2,0.1-0.5,0.1-0.8,0.1
			c-0.7,0-1.2-0.1-1.8-0.4l-0.3-0.4c-0.7,0.1-1.1,0.2-1.3,0.2c-0.3,0-0.6-0.1-1-0.2c-0.7,0.5-1.9,0.8-3.6,1.2c-0.9,0-1.9,0-3-0.1
			c0-0.1,0.1-0.3,0.4-0.7l-2.5,0.8c-0.1,0-0.1,0-0.2,0c-0.5,0-1.3,0.5-2.5,1.4l-1.3-0.6l-0.6,0.4l-2.3-0.7l-1.4,0.7h-2l-2.9,0.6
			l-2.4,1.1l-0.7-0.4l-1.3,0.9h-1.3l-0.3,0.5l0.3,1.2l-1.7,2l0.8,0.1l0,2.7l1.1,1.2l-0.9,0.8c-0.7,1.1-1,1.9-1,2.2
			c0,0.3,0.2,0.5,0.6,0.6l1.2-0.4c0.3-0.1,0.7-0.1,1-0.1c1,0.1,1.7,0.3,2.2,0.4l1.8-0.7l1.6,0.3h0.9h1.1h1.6c0.5,0,0.9,0,1.3,0
			c0.3,0,0.8-0.2,1.6-0.7c0.5,0.3,1.3,0.4,2.2,0.4c0.1,0,0.4,0,0.7-0.1c0.3,0,0.6,0,0.8,0h0.2c-0.1,0-0.3,0-0.4-0.1h0.3
			c0.4,0,1.6,0.2,3.5,0.5c0.2-0.1,1.2-0.2,3-0.3c1-0.1,1.7-0.2,2-0.2c1,0,1.9,0,2.8,0.1l0.9-0.1c0.9-0.5,1.8-0.8,2.5-0.8
			c0.6,0,1.2,0.1,1.8,0.3l1.4-0.3l1.2,0.5l3.9-1V187.3z"/>
		<path class="st0" d="M800.4,187.3c0,1.5-0.5,2.9-1.4,4.1c-1.8,0.7-3.2,1.1-4.4,1.1c-0.3,0-0.6-0.1-1.1-0.2
			c-0.5-0.1-0.8-0.2-0.9-0.2l-2.5,1.3l-2.3-0.2l-1.4,0.5l-0.7-0.2l-1.8,1l-1.5-0.4c-1.8,0-3.2,0-4.2,0h0.4l-1.8,0.5h-0.3l-0.7,0.7
			l-1.4-0.5l-0.8,0.5l-2.2-0.7l-1.3,0.7c-1.6-0.4-2.5-0.6-2.7-0.6c-0.7,0-1.6,0.2-2.7,0.7l-4.4,0.4l-0.4-0.5l-1.7,0.4l-0.1,0.6
			l0.9,4.9l-0.2,0.5l0.3,1v1.3c0.3,1,0.6,2,0.7,2.9l1.2,1.2l-0.2,0.6l2,2.4c2,1.4,3.6,2.1,4.6,2.1h0.2c0.1,0,0.3,0,0.5-0.1
			c0.2,0,0.3,0,0.4,0c0.3,0,0.6,0.1,1.1,0.3l0.9-0.1c0.8-0.2,2.1-0.4,3.6-0.7l1.1-0.6l0.2-0.4l0.7-0.1l0.8-0.5l0.5,0.3l1.6-0.5
			l1.3-0.8l0.5-0.7l1.7-1.3l1.3-0.2l2.3-1.8c1.6-0.3,2.8-1.6,3.5-3.9l0.3,0.1l0.1-0.3l1.3-0.1l1.9-1.6l0.7-0.1
			c0.2-0.1,0.4-0.1,0.7-0.1c1.2,0,2,1.2,2.2,3.6l-4.3,5.1l-1.1,0.3l-0.4,0.6l-1.9,2l-2.6,1.6l-2.2,2.1l-0.7-0.1l-0.8,0.8l-4.4,1.7
			l-1.8,2l-1.3-0.5l-0.5,0.9l-0.9-0.3l-0.5,0.5l-3.2-0.6l-3.3,1.4l-3.3-1.1l-4.2-2c-3.6-1.7-6.4-6.4-8.3-14.1v-1.1l-0.8-2.2l0.8-1
			l-0.5-2.7l-0.1-0.9l-1.7-1.9v-1.2c0-1.9,0.5-3.2,1.6-3.9c0.2-0.5,0.6-1,1.1-1.5l-0.4-0.3v-2.7v-1.4l1.2-3.1l0.3-1.6l-1,0.1h-0.4
			c-0.9,0-1.7-0.3-2.3-0.9c-0.7-0.6-1-1.4-1-2.2c0-1,0.6-2.1,1.9-3.3l0.7-0.7l0.9-0.4c1-0.5,1.9-0.7,2.4-0.7h0.5c0.1,0,0.5,0,1,0
			h0.4l1-1.7l4.4,0.3l0.3,0.3c0.6-0.1,1.5-0.2,2.6-0.2l2-0.4h0.5c0.8-0.3,1.7-0.8,2.4-1.6l1.5,0.9h0.5c0.3,0,0.7,0,1.1,0
			c0.4,0,0.7,0,0.8,0l9.8-0.9l1,0.6l1.4-0.3l0.8-0.9l2,1.3l0.7-0.6l2.2,0.9l1.5-0.3l0.8,0.3l3.1-0.3l0.7,0.5l1.6,0.3
			c1.5,0.3,2.2,1,2.2,2.2c0,0.8-0.3,1.5-0.8,2.1c-0.6,0.6-1.1,0.9-1.7,0.9h-0.4l-1.1,0.6l-2-0.6l-0.9,0.1c-0.2,0.1-0.5,0.1-0.8,0.1
			c-0.7,0-1.2-0.1-1.8-0.4l-0.3-0.4c-0.7,0.1-1.1,0.2-1.3,0.2c-0.3,0-0.6-0.1-1-0.2c-0.7,0.5-1.9,0.8-3.6,1.2c-0.9,0-1.9,0-3-0.1
			c0-0.1,0.1-0.3,0.4-0.7l-2.5,0.8c-0.1,0-0.1,0-0.2,0c-0.5,0-1.3,0.5-2.5,1.4l-1.3-0.6l-0.6,0.4l-2.3-0.7l-1.4,0.7h-2l-2.9,0.6
			l-2.4,1.1l-0.7-0.4l-1.3,0.9h-1.3l-0.3,0.5l0.3,1.2l-1.7,2l0.8,0.1l0,2.7l1.1,1.2l-0.9,0.8c-0.7,1.1-1,1.9-1,2.2
			c0,0.3,0.2,0.5,0.6,0.6l1.2-0.4c0.3-0.1,0.7-0.1,1-0.1c1,0.1,1.7,0.3,2.2,0.4l1.8-0.7l1.6,0.3h0.9h1.1h1.6c0.5,0,0.9,0,1.3,0
			c0.3,0,0.8-0.2,1.6-0.7c0.5,0.3,1.3,0.4,2.2,0.4c0.1,0,0.4,0,0.7-0.1c0.3,0,0.6,0,0.8,0h0.2c-0.1,0-0.3,0-0.4-0.1h0.3
			c0.4,0,1.6,0.2,3.5,0.5c0.2-0.1,1.2-0.2,3-0.3c1-0.1,1.7-0.2,2-0.2c1,0,1.9,0,2.8,0.1l0.9-0.1c0.9-0.5,1.8-0.8,2.5-0.8
			c0.6,0,1.2,0.1,1.8,0.3l1.4-0.3l1.2,0.5l3.9-1V187.3z"/>
		<path class="st0" d="M885.1,206.2l-0.3,2.2l-1,3.2l-1.9,4.2c-0.3,0.2-0.6,0.7-1,1.6c-0.4,0.8-0.9,1.5-1.7,1.9l-1.1,1.4
			c-0.7,0-1.1,0-1.3,0.1l-0.1,0.3c-0.6,0.8-1.4,1.2-2.3,1.2h-0.4l-0.9-0.6H873l-1.3,1.1l-1.2-0.5l-0.9,0.5c-1-0.6-1.6-1-1.7-1.1
			c-0.4,0.1-1.2,0.4-2.5,1.1c-0.3-0.9-1-1.4-2.2-1.4c-0.7,0-1.5,0.1-2.2,0.3l-2-0.7l-1.7,0.7l-1.3-1l-1.1,0.7l-2.2-1.4l-4.3-0.4
			l-1.3-0.5c-2-0.1-3.7-0.3-5.2-0.8c-0.1-0.1-0.2-0.1-0.5-0.1c-0.1,0-0.4,0.1-0.8,0.2c-0.4,0.1-0.7,0.2-1,0.2
			c-0.5,0-0.9-0.1-1.4-0.4h-2.3l-1.6-0.8l-4-0.5H829l-3.7-0.7h-1h-0.5h-0.8h-0.7c-0.8,0-1.3,0-1.7,0c-0.6,0-1.1-0.1-1.7-0.3
			l-2.2-0.2c-0.1,0-0.5-0.1-1.2-0.2l-1.1,0.7l-0.4-0.3c-1.5,0.6-2.7,0.9-3.6,1l-2.9,2.2l-1.6-0.6H804l-0.6-1.6l-1.1-1.4v-2.2
			l0.6-1.2h0.9v-1h0.4l0.4-0.3l0.2,0.3l1.3-1.3l2.3-0.7c1.2-1.2,2.5-2.1,3.9-2.6l0.8-0.8h0.5l0.4-1.3h1.5c0.3-0.3,0.4-0.5,0.5-0.8
			l1.4-1.7l0.2-0.8c1-0.1,1.8-0.2,2.2-0.3c0.6-0.9,1.4-1.4,2.3-1.5l1.3-1.3l1.8-2l2.2-0.9l0.1-1.2c1-1,2.1-1.7,3.2-2.2l-0.2,0.2
			l0.8-0.3l2.1-2.6l1.5-0.1l0.6-0.5l0.6-1.2l0.5-0.2c0.9-0.9,1.8-1.4,2.6-1.6c0.2-0.3,0.5-0.6,0.8-0.8l0.5-1.4l1.2-0.3l0.1-0.3
			l1.1-0.2l1.7-2.2l1.8-1.1l0.6-1.6l1.3-0.8l1.8-1.9l-0.1-0.3c-0.7,0.3-1.5,0.5-2.4,0.5h-0.5l-0.7-0.5h-1.6h-0.8
			c-0.3,0.1-1.2,0.1-2.7,0.1l-2.5,0.9l-1-1h-2.1c-0.1,0-0.3,0-0.6,0c-0.3,0.3-0.5,0.5-0.6,0.5c-0.8,0-1.6-0.2-2.2-0.5l-2.8,1
			l-0.7-0.5l-0.7,0.4l-1.5-0.4c-0.5,0.2-0.9,0.3-1.4,0.3c-0.4,0-0.8-0.1-1.2-0.3l-0.8,0.6l-1.3-1.1l-0.9,1l-2.5-1l-0.9,0.5
			c-3.1-0.2-4.6-2.2-4.6-6.2l2.7-1.7c0.9,0.2,2.2,0.3,3.7,0.3c1.4,0,2.4-0.1,3-0.3l0.7,0.3l2-0.3l4.8,0.3l1-0.3l2.6,0l0.2,0.3h0.3
			c0.3,0,0.6,0,0.8,0l0.9-0.6l2,0.6l2-0.9l1.6,0.9h2.8l1.9-0.3l0.8,0.3c0.3,0,0.8,0,1.5,0c1,0,1.9,0,2.4,0h0.4h0.4
			c0.6-0.2,1.1-0.3,1.5-0.3l2.6,0.3c1.4-0.3,2.6-0.4,3.7-0.4c0.3-0.3,0.7-0.6,1.2-0.6c0.4-0.4,0.9-0.6,1.6-0.6
			c0.1,0,0.5,0.1,1.2,0.2c2,1.1,3.1,2.8,3.3,4.9l-0.9,1.7l-3,0.9l-0.8,0.8c-0.3,0.2-0.6,0.3-1,0.3h-0.4l-0.4,1.2l-0.9,0.4l-1.7,1.6
			l-2,1.2l-0.4,0.7l-1.8,1.8l-1.2,1.9l-1.3,0.2l-0.6,1.2l-1.2,0.6v1.3h0.3l-3.6,1.9v0.8c-1.3,0.5-2.2,0.9-2.8,1.3
			c-0.3,1-1,1.8-2.2,2.2l-0.4,1l-1.7,0.7l-0.6,0.5l-0.9,1.5h-2.4l-0.5,0.5c-0.3,1.3-1.3,2.3-2.8,3.1l-0.2,0.1v0.4l-1.8,1.2l0.4-0.1
			l-1,0.5l-1.2,0.7l0.1-0.3l-0.8,0.3l-2.6,3.2l-3.4,1.9l-0.2,0.4h2.3l5.2,0.3v0.1c0,0.1,0.1,0.2,0.4,0.3c0.3,0.1,0.4,0.2,0.5,0.4
			c0.4,0.1,0.6,0.2,0.7,0.2c-0.1,0,0.4-0.1,1.5-0.2l2.3-0.3c0.9,0.1,1.7,0.5,2.3,1.2c0.4,0,1.1,0,2.1,0c1.1,0,2.5,0.3,4.2,1l0.9-0.1
			l1.4,0.4l1.1-0.7l1,0.8c1.5,0.1,3,0.3,4.5,0.5c1.2,0.1,2,0.4,2.4,0.8l0.2,0.1l6.5,0.2l2.4,0.6h4.4l1.3,0.5l4-0.3
			c0.7-0.1,1.1-0.1,1.3-0.2c0.2-0.1,0.4-0.4,0.6-1l1.6-1l1.2-2.2l0.5-3.3l0.9-0.9c1.2-1.7,2.3-2.5,3.4-2.5c0.9,0,1.6,0.3,2.3,0.8
			C884.6,204.7,885,205.4,885.1,206.2z"/>
		<path class="st0" d="M949.8,187.3c0,1.5-0.5,2.9-1.4,4.1c-1.8,0.7-3.2,1.1-4.4,1.1c-0.3,0-0.6-0.1-1.1-0.2
			c-0.5-0.1-0.8-0.2-0.9-0.2l-2.5,1.3l-2.3-0.2l-1.4,0.5l-0.7-0.2l-1.8,1l-1.5-0.4c-1.8,0-3.2,0-4.2,0h0.4l-1.8,0.5h-0.3l-0.7,0.7
			l-1.4-0.5l-0.8,0.5l-2.2-0.7l-1.3,0.7c-1.6-0.4-2.5-0.6-2.7-0.6c-0.7,0-1.6,0.2-2.7,0.7l-4.4,0.4l-0.4-0.5l-1.7,0.4l-0.1,0.6
			l0.9,4.9l-0.2,0.5l0.3,1v1.3c0.3,1,0.6,2,0.7,2.9l1.2,1.2l-0.2,0.6l2,2.4c2,1.4,3.6,2.1,4.6,2.1h0.2c0.1,0,0.3,0,0.5-0.1
			c0.2,0,0.3,0,0.4,0c0.3,0,0.6,0.1,1.1,0.3l0.9-0.1c0.8-0.2,2.1-0.4,3.6-0.7l1.1-0.6l0.2-0.4l0.7-0.1l0.8-0.5l0.5,0.3l1.6-0.5
			l1.3-0.8l0.5-0.7l1.7-1.3l1.3-0.2l2.3-1.8c1.6-0.3,2.8-1.6,3.5-3.9l0.3,0.1l0.1-0.3l1.3-0.1l1.9-1.6l0.7-0.1
			c0.2-0.1,0.4-0.1,0.7-0.1c1.2,0,2,1.2,2.2,3.6l-4.3,5.1l-1.1,0.3l-0.4,0.6l-1.9,2l-2.6,1.6l-2.2,2.1l-0.7-0.1l-0.8,0.8l-4.4,1.7
			l-1.8,2l-1.3-0.5l-0.5,0.9l-0.9-0.3l-0.5,0.5l-3.2-0.6l-3.3,1.4l-3.3-1.1l-4.2-2c-3.6-1.7-6.4-6.4-8.3-14.1v-1.1l-0.8-2.2l0.8-1
			l-0.5-2.7l-0.1-0.9l-1.7-1.9v-1.2c0-1.9,0.5-3.2,1.6-3.9c0.2-0.5,0.6-1,1.1-1.5l-0.4-0.3v-2.7v-1.4l1.2-3.1l0.3-1.6l-1,0.1h-0.4
			c-0.9,0-1.7-0.3-2.3-0.9c-0.7-0.6-1-1.4-1-2.2c0-1,0.6-2.1,1.9-3.3l0.7-0.7l0.9-0.4c1-0.5,1.9-0.7,2.4-0.7h0.5c0.1,0,0.5,0,1,0
			h0.4l1-1.7l4.4,0.3l0.3,0.3c0.6-0.1,1.5-0.2,2.6-0.2l2-0.4h0.5c0.8-0.3,1.7-0.8,2.4-1.6l1.5,0.9h0.5c0.3,0,0.7,0,1.1,0
			c0.4,0,0.7,0,0.8,0l9.8-0.9l1,0.6l1.4-0.3l0.8-0.9l2,1.3l0.7-0.6l2.2,0.9l1.5-0.3l0.8,0.3l3.1-0.3l0.7,0.5l1.6,0.3
			c1.5,0.3,2.2,1,2.2,2.2c0,0.8-0.3,1.5-0.8,2.1c-0.6,0.6-1.1,0.9-1.7,0.9h-0.4l-1.1,0.6l-2-0.6l-0.9,0.1c-0.2,0.1-0.5,0.1-0.8,0.1
			c-0.7,0-1.2-0.1-1.8-0.4l-0.3-0.4c-0.7,0.1-1.1,0.2-1.3,0.2c-0.3,0-0.6-0.1-1-0.2c-0.7,0.5-1.9,0.8-3.6,1.2c-0.9,0-1.9,0-3-0.1
			c0-0.1,0.1-0.3,0.4-0.7l-2.5,0.8c-0.1,0-0.1,0-0.2,0c-0.5,0-1.3,0.5-2.5,1.4l-1.3-0.6l-0.6,0.4l-2.3-0.7l-1.4,0.7h-2l-2.9,0.6
			l-2.4,1.1l-0.7-0.4l-1.3,0.9h-1.3l-0.3,0.5l0.3,1.2l-1.7,2l0.8,0.1l0,2.7l1.1,1.2l-0.9,0.8c-0.7,1.1-1,1.9-1,2.2
			c0,0.3,0.2,0.5,0.6,0.6l1.2-0.4c0.3-0.1,0.7-0.1,1-0.1c1,0.1,1.7,0.3,2.2,0.4l1.8-0.7l1.6,0.3h0.9h1.1h1.6c0.5,0,0.9,0,1.3,0
			c0.3,0,0.8-0.2,1.6-0.7c0.5,0.3,1.3,0.4,2.2,0.4c0.1,0,0.4,0,0.7-0.1c0.3,0,0.6,0,0.8,0h0.2c-0.1,0-0.3,0-0.4-0.1h0.3
			c0.4,0,1.6,0.2,3.5,0.5c0.2-0.1,1.2-0.2,3-0.3c1-0.1,1.7-0.2,2-0.2c1,0,1.9,0,2.8,0.1l0.9-0.1c0.9-0.5,1.8-0.8,2.5-0.8
			c0.6,0,1.2,0.1,1.8,0.3l1.4-0.3l1.2,0.5l3.9-1V187.3z"/>
	</g>
	<g>
		<path d="M51.8,33.2l3.8-0.2l3.8-0.1c1.3,0,2.6,0,3.8,0c1.3,0,2.6,0.1,3.9,0.2c1.3,0.1,2.6,0.3,3.9,0.4c1.3,0.1,2.6,0.4,3.8,0.6
			c1.3,0.2,2.5,0.6,3.8,0.9c1.3,0.3,2.5,0.8,3.7,1.2c1.2,0.5,2.4,1,3.6,1.6l1.7,0.9c0.6,0.3,1.2,0.6,1.7,1l1.6,1.1l0.8,0.6l0.8,0.6
			c1,0.9,2.1,1.7,3,2.7c0.9,1,1.9,1.9,2.7,3c0.8,1.1,1.7,2,2.4,3.2l1.1,1.7c0.4,0.6,0.7,1.1,1,1.7l1.8,3.5l-2.7,0l2.7-5.9
			c0.9-2,1.8-3.9,2.8-5.9l1.5-2.9l1.6-2.9l1.8-2.8c0.6-0.9,1.3-1.8,1.9-2.7c0.7-0.9,1.4-1.7,2.1-2.6c0.8-0.8,1.5-1.6,2.3-2.4
			c0.8-0.7,1.7-1.5,2.5-2.2c0.9-0.6,1.8-1.3,2.8-1.9c1-0.5,2-1.1,3-1.5c1-0.4,2.1-0.8,3.1-1.1c1.1-0.2,2.1-0.5,3.2-0.6l3.3-0.2
			l-3.2,0.6c-1,0.3-2,0.7-3.1,1c-0.5,0.1-1,0.4-1.5,0.6l-1.4,0.7c-0.9,0.5-1.8,1.1-2.7,1.7c-0.8,0.6-1.6,1.3-2.5,2l-2.3,2.2l-2,2.4
			c-0.6,0.9-1.3,1.7-1.9,2.6l-1.7,2.7l-1.6,2.8l-1.5,2.8l-1.4,2.9l-2.6,5.9l-2.6,5.9c-0.3,0.7-1.2,1.1-1.9,0.7
			c-0.3-0.1-0.6-0.4-0.7-0.6l0-0.1l-1.8-3.3c-0.6-1.1-1.3-2.1-1.9-3.2c-0.6-1.1-1.5-2-2.2-3c-0.7-1-1.6-1.9-2.4-2.8
			c-0.8-0.9-1.8-1.7-2.7-2.5l-0.7-0.6L89.5,43L88,41.9c-0.5-0.4-1-0.7-1.6-1L84.9,40c-1.1-0.6-2.2-1.1-3.3-1.6
			c-1.2-0.4-2.3-0.9-3.5-1.3c-1.2-0.3-2.4-0.7-3.6-1c-1.2-0.3-2.4-0.6-3.7-0.8c-1.2-0.2-2.5-0.5-3.7-0.6c-1.3-0.1-2.5-0.4-3.8-0.5
			c-1.3-0.1-2.5-0.3-3.8-0.4C56.9,33.6,54.3,33.4,51.8,33.2z"/>
	</g>
	<g>
		<path d="M37.1,106.8l3.3-0.2l3.3-0.1c1.1,0,2.2,0,3.3,0c1.1,0,2.2,0.1,3.3,0.2c1.1,0.1,2.2,0.2,3.3,0.3c1.1,0.1,2.2,0.3,3.3,0.5
			c1.1,0.2,2.2,0.5,3.3,0.7c1.1,0.3,2.2,0.6,3.2,0.9c1.1,0.4,2.1,0.7,3.2,1.1c1,0.5,2.1,0.9,3.1,1.4c1,0.5,2,1,3,1.6
			c0.9,0.6,2,1.1,2.9,1.8c0.9,0.7,1.9,1.3,2.7,2c0.9,0.7,1.8,1.4,2.6,2.2c0.8,0.8,1.7,1.5,2.4,2.3l2.3,2.4l-2.4,0.2
			c1-1.7,2.1-3.5,3.2-5.2c0.5-0.9,1.1-1.7,1.7-2.6c0.5-0.9,1.2-1.7,1.8-2.5c0.6-0.8,1.2-1.6,1.9-2.5c0.6-0.8,1.3-1.6,2-2.4
			c0.7-0.8,1.4-1.5,2.2-2.2c0.8-0.7,1.6-1.4,2.4-2.1c0.9-0.6,1.7-1.3,2.6-1.8l1.4-0.8c0.5-0.3,0.9-0.5,1.4-0.7
			c1-0.4,1.9-0.9,2.9-1.1c1-0.3,2-0.7,3-0.8c1-0.2,2-0.4,3.1-0.4c1-0.1,2.1-0.2,3.1-0.1c1,0.1,2,0,3.1,0.1l3,0.4l-3,0.1
			c-1,0-2,0.2-3,0.2c-1,0.1-2,0.3-3,0.4c-1,0.1-1.9,0.4-2.9,0.7c-1,0.2-1.9,0.6-2.8,1c-0.9,0.3-1.8,0.8-2.6,1.3
			c-0.4,0.2-0.9,0.5-1.3,0.8l-1.2,0.8c-0.8,0.6-1.5,1.2-2.3,1.8c-0.7,0.7-1.4,1.3-2.1,2c-0.6,0.7-1.3,1.4-2,2.2
			c-0.6,0.8-1.3,1.5-1.8,2.3c-0.6,0.8-1.2,1.6-1.7,2.4c-2.2,3.3-4.3,6.8-6.3,10.3c-0.4,0.7-1.3,1-2,0.5c-0.1-0.1-0.2-0.2-0.3-0.3
			l0,0l-2.2-2.3c-0.7-0.8-1.5-1.5-2.3-2.2c-0.8-0.7-1.6-1.4-2.4-2.1c-0.8-0.7-1.7-1.3-2.5-1.9c-0.8-0.7-1.8-1.2-2.6-1.8
			c-0.9-0.6-1.8-1.1-2.8-1.6c-0.9-0.5-1.9-0.9-2.9-1.4l-3-1.2c-1-0.3-2-0.7-3-1c-1-0.3-2.1-0.6-3.1-0.9c-1.1-0.2-2.1-0.5-3.2-0.7
			c-1.1-0.2-2.1-0.4-3.2-0.6c-1.1-0.2-2.1-0.4-3.2-0.5l-3.3-0.4C41.5,107.2,39.3,107,37.1,106.8z"/>
	</g>
	<g>
		<path d="M153,49.8c2-0.2,3.9-0.3,5.9-0.4c1-0.1,2-0.1,3-0.1c1,0,2-0.1,3-0.1c1,0,2,0,3,0.1c1,0,2,0.1,3,0.2c1,0.1,2,0.2,3,0.4
			c1,0.1,2,0.4,3,0.7c1,0.3,2,0.6,2.9,1c0.9,0.4,1.9,0.8,2.8,1.3c0.9,0.5,1.8,1,2.6,1.6l1.3,0.9l1.2,0.9l1.2,1l1.1,1
			c0.7,0.7,1.5,1.4,2.2,2.1c0.7,0.7,1.4,1.4,2.1,2.2l2,2.2l-2.6,0.8l0.6-2.9c0.2-1,0.6-1.9,0.9-2.8c0.3-0.9,0.8-1.8,1.2-2.7
			c0.4-0.9,1.1-1.7,1.6-2.5c0.6-0.8,1.3-1.5,1.9-2.3c0.7-0.7,1.4-1.4,2.1-2.1c0.7-0.6,1.5-1.2,2.3-1.8c0.8-0.5,1.6-1,2.5-1.5
			l2.6-1.3c0.9-0.4,1.8-0.8,2.6-1.1l2.7-1l2.7-0.8l2.8-0.7l2.8-0.6l2.8-0.5l2.8-0.4c-1.8,0.5-3.6,1.1-5.4,1.6l-2.7,0.9l-2.6,0.9
			l-2.6,1l-2.5,1.1l-2.4,1.3l-2.3,1.4c-0.7,0.5-1.5,1-2.2,1.6c-0.7,0.6-1.4,1.1-2,1.7c-0.6,0.6-1.3,1.2-1.8,1.9
			c-0.5,0.7-1.1,1.4-1.6,2.1l-0.7,1.1c-0.2,0.4-0.5,0.7-0.6,1.1c-0.3,0.8-0.8,1.6-1.1,2.4c-0.3,0.8-0.6,1.7-0.8,2.5l-0.5,2.6l0,0.1
			c-0.2,0.8-1,1.3-1.8,1.2c-0.3-0.1-0.6-0.2-0.8-0.5l-1.9-2.2c-0.6-0.7-1.3-1.4-2-2.1c-0.7-0.7-1.4-1.4-2.1-2l-1-1l-1.1-0.9
			l-1.1-0.9l-1.1-0.8c-0.7-0.6-1.6-1.1-2.4-1.6c-0.8-0.5-1.7-0.9-2.5-1.3c-0.9-0.4-1.7-0.7-2.6-1.1c-0.9-0.3-1.8-0.6-2.7-0.8
			l-1.4-0.3c-0.5-0.1-0.9-0.2-1.4-0.3c-0.9-0.2-1.9-0.3-2.9-0.4c-1-0.1-1.9-0.2-2.9-0.3c-1.9-0.2-3.9-0.3-5.9-0.5L153,49.8z"/>
	</g>
	<g>
		<path d="M1029.6,283.6l3.8-0.2l3.8-0.1c1.3,0,2.6,0,3.8,0c1.3,0,2.6,0.1,3.9,0.2c1.3,0.1,2.6,0.3,3.9,0.4c1.3,0.1,2.6,0.4,3.8,0.6
			c1.3,0.2,2.5,0.6,3.8,0.9c1.3,0.3,2.5,0.8,3.7,1.2c1.2,0.5,2.4,1,3.6,1.6l1.7,0.9c0.6,0.3,1.2,0.6,1.7,1l1.6,1.1l0.8,0.6l0.8,0.6
			c1,0.9,2.1,1.7,3,2.7c0.9,1,1.9,1.9,2.7,3c0.8,1.1,1.7,2,2.4,3.2l1.1,1.7c0.4,0.6,0.7,1.1,1,1.7l1.8,3.5l-2.7,0l2.7-5.9
			c0.9-2,1.8-3.9,2.8-5.9l1.5-2.9l1.6-2.9l1.8-2.8c0.6-0.9,1.3-1.8,1.9-2.7c0.7-0.9,1.4-1.7,2.1-2.6c0.8-0.8,1.5-1.6,2.3-2.4
			c0.8-0.7,1.7-1.5,2.5-2.2c0.9-0.6,1.8-1.3,2.8-1.9c1-0.5,2-1.1,3-1.5c1-0.4,2.1-0.8,3.1-1.1c1.1-0.2,2.1-0.5,3.2-0.6l3.3-0.2
			l-3.2,0.6c-1,0.3-2,0.7-3.1,1c-0.5,0.1-1,0.4-1.5,0.6l-1.4,0.7c-0.9,0.5-1.8,1.1-2.7,1.7c-0.8,0.6-1.6,1.3-2.5,2l-2.3,2.2l-2,2.4
			c-0.6,0.9-1.3,1.7-1.9,2.6l-1.7,2.7l-1.6,2.8l-1.5,2.8l-1.4,2.9l-2.6,5.9l-2.6,5.9c-0.3,0.7-1.2,1.1-1.9,0.7
			c-0.3-0.1-0.6-0.4-0.7-0.6l0-0.1l-1.8-3.3c-0.6-1.1-1.3-2.1-1.9-3.2c-0.6-1.1-1.5-2-2.2-3c-0.7-1-1.6-1.9-2.4-2.8
			c-0.8-0.9-1.8-1.7-2.7-2.5l-0.7-0.6l-0.7-0.5l-1.5-1.1c-0.5-0.4-1-0.7-1.6-1l-1.6-0.9c-1.1-0.6-2.2-1.1-3.3-1.6
			c-1.2-0.4-2.3-0.9-3.5-1.3c-1.2-0.3-2.4-0.7-3.6-1c-1.2-0.3-2.4-0.6-3.7-0.8c-1.2-0.2-2.5-0.5-3.7-0.6c-1.3-0.1-2.5-0.4-3.8-0.5
			c-1.3-0.1-2.5-0.3-3.8-0.4C1034.7,284,1032.1,283.8,1029.6,283.6z"/>
	</g>
	<g>
		<path d="M1114.2,254.4l3.3-0.2l3.3-0.1c1.1,0,2.2,0,3.3,0c1.1,0,2.2,0.1,3.3,0.2c1.1,0.1,2.2,0.2,3.3,0.3c1.1,0.1,2.2,0.3,3.3,0.5
			c1.1,0.2,2.2,0.5,3.3,0.7c1.1,0.3,2.2,0.6,3.2,0.9c1.1,0.4,2.1,0.7,3.2,1.1c1,0.5,2.1,0.9,3.1,1.4c1,0.5,2,1,3,1.6
			c0.9,0.6,2,1.1,2.9,1.8c0.9,0.7,1.9,1.3,2.7,2c0.9,0.7,1.8,1.4,2.6,2.2c0.8,0.8,1.7,1.5,2.4,2.3l2.3,2.4l-2.4,0.2
			c1-1.7,2.1-3.5,3.2-5.2c0.5-0.9,1.1-1.7,1.7-2.6c0.5-0.9,1.2-1.7,1.8-2.5c0.6-0.8,1.2-1.6,1.9-2.5c0.6-0.8,1.3-1.6,2-2.4
			c0.7-0.8,1.4-1.5,2.2-2.2c0.8-0.7,1.6-1.4,2.4-2.1c0.9-0.6,1.7-1.3,2.6-1.8l1.4-0.8c0.5-0.3,0.9-0.5,1.4-0.7
			c1-0.4,1.9-0.9,2.9-1.1c1-0.3,2-0.7,3-0.8c1-0.2,2-0.4,3.1-0.4c1-0.1,2.1-0.2,3.1-0.1c1,0.1,2,0,3.1,0.1l3,0.4l-3,0.1
			c-1,0-2,0.2-3,0.2c-1,0.1-2,0.3-3,0.4c-1,0.1-1.9,0.4-2.9,0.7c-1,0.2-1.9,0.6-2.8,1c-0.9,0.3-1.8,0.8-2.6,1.3
			c-0.4,0.2-0.9,0.5-1.3,0.8l-1.2,0.8c-0.8,0.6-1.5,1.2-2.3,1.8c-0.7,0.7-1.4,1.3-2.1,2c-0.6,0.7-1.3,1.4-2,2.2
			c-0.6,0.8-1.3,1.5-1.8,2.3c-0.6,0.8-1.2,1.6-1.7,2.4c-2.2,3.3-4.3,6.8-6.3,10.3c-0.4,0.7-1.3,1-2,0.5c-0.1-0.1-0.2-0.2-0.3-0.3
			l0,0l-2.2-2.3c-0.7-0.8-1.5-1.5-2.3-2.2c-0.8-0.7-1.6-1.4-2.4-2.1c-0.8-0.7-1.7-1.3-2.5-1.9c-0.8-0.7-1.8-1.2-2.6-1.8
			c-0.9-0.6-1.8-1.1-2.8-1.6c-0.9-0.5-1.9-0.9-2.9-1.4l-3-1.2c-1-0.3-2-0.7-3-1c-1-0.3-2.1-0.6-3.1-0.9c-1.1-0.2-2.1-0.5-3.2-0.7
			c-1.1-0.2-2.1-0.4-3.2-0.6c-1.1-0.2-2.1-0.4-3.2-0.5l-3.3-0.4C1118.6,254.7,1116.4,254.6,1114.2,254.4z"/>
	</g>
	<g>
		<path d="M1156.5,305.3c2-0.2,3.9-0.3,5.9-0.4c1-0.1,2-0.1,3-0.1c1,0,2-0.1,3-0.1c1,0,2,0,3,0.1c1,0,2,0.1,3,0.2c1,0.1,2,0.2,3,0.4
			c1,0.1,2,0.4,3,0.7c1,0.3,2,0.6,2.9,1c0.9,0.4,1.9,0.8,2.8,1.3c0.9,0.5,1.8,1,2.6,1.6l1.3,0.9l1.2,0.9l1.2,1l1.1,1
			c0.7,0.7,1.5,1.4,2.2,2.1c0.7,0.7,1.4,1.4,2.1,2.2l2,2.2l-2.6,0.8l0.6-2.9c0.2-1,0.6-1.9,0.9-2.8c0.3-0.9,0.8-1.8,1.2-2.7
			c0.4-0.9,1.1-1.7,1.6-2.5c0.6-0.8,1.3-1.5,1.9-2.3c0.7-0.7,1.4-1.4,2.1-2.1c0.7-0.6,1.5-1.2,2.3-1.8c0.8-0.5,1.6-1,2.5-1.5
			l2.6-1.3c0.9-0.4,1.8-0.8,2.6-1.1l2.7-1l2.7-0.8l2.8-0.7l2.8-0.6l2.8-0.5l2.8-0.4c-1.8,0.5-3.6,1.1-5.4,1.6l-2.7,0.9l-2.6,0.9
			l-2.6,1l-2.5,1.1l-2.4,1.3l-2.3,1.4c-0.7,0.5-1.5,1-2.2,1.6c-0.7,0.6-1.4,1.1-2,1.7c-0.6,0.6-1.3,1.2-1.8,1.9
			c-0.5,0.7-1.1,1.4-1.6,2.1l-0.7,1.1c-0.2,0.4-0.5,0.7-0.6,1.1c-0.3,0.8-0.8,1.6-1.1,2.4c-0.3,0.8-0.6,1.7-0.8,2.5l-0.5,2.6l0,0.1
			c-0.2,0.8-1,1.3-1.8,1.2c-0.3-0.1-0.6-0.2-0.8-0.5l-1.9-2.2c-0.6-0.7-1.3-1.4-2-2.1c-0.7-0.7-1.4-1.4-2.1-2l-1-1l-1.1-0.9
			l-1.1-0.9l-1.1-0.8c-0.7-0.6-1.6-1.1-2.4-1.6c-0.8-0.5-1.7-0.9-2.5-1.3c-0.9-0.4-1.7-0.7-2.6-1.1c-0.9-0.3-1.8-0.6-2.7-0.8
			l-1.4-0.3c-0.5-0.1-0.9-0.2-1.4-0.3c-0.9-0.2-1.9-0.3-2.9-0.4c-1-0.1-1.9-0.2-2.9-0.3c-1.9-0.2-3.9-0.3-5.9-0.5L1156.5,305.3z"/>
	</g>
</g>
<g id="Layer_3">
</g>
<g id="Layer_1">
</g>
<g id="Layer_2">
	<g>
	</g>
	<g>
	</g>
	<g>
	</g>
	<g>
	</g>
	<g>
	</g>
	<g>
	</g>
</g>
</svg>
