<?xml version="1.0" encoding="utf-8"?>
<!-- Generator: Adobe Illustrator 19.1.0, SVG Export Plug-In . SVG Version: 6.00 Build 0)  -->
<!DOCTYPE svg PUBLIC "-//W3C//DTD SVG 1.1//EN" "http://www.w3.org/Graphics/SVG/1.1/DTD/svg11.dtd">
<svg version="1.1" id="Layer_1" xmlns="http://www.w3.org/2000/svg" xmlns:xlink="http://www.w3.org/1999/xlink" x="0px" y="0px"
	 width="1271.2px" height="1016.2px" viewBox="240 412.1 1271.2 1016.2" style="enable-background:new 240 412.1 1271.2 1016.2;"
	 xml:space="preserve">
<style type="text/css">
	.st0{fill:#4DC8F0;}
	.st1{fill:#5ED4EF;}
	.st2{fill:#56D0ED;}
</style>
<g id="Layer_4">
	<path class="st0" d="M1557.6,814H210.2V467c0,0,20.4-29.2,52.9,0c0,0,30.8,29.2,94.3-1c0,0,70.3-49.5,161.1,2.7
		c0,0,111.4,35.7,169.7-5.5c0,0,39.4-49.5,186.9-2.7c0,0,65.2,38.4,137.2-2.7c0,0,24-41.2,130.3-2.7c0,0,44.6,33,118.3,0
		c0,0,56.6-52.2,123.5,5.5c0,0,63.4,33,135.5-13.8c0,0,22.6-5.5,37.8,8.2V814z"/>
</g>
<g id="Layer_3">
</g>
<g id="Layer_1_1_">
</g>
<g id="Layer_2">
</g>
<rect x="240" y="743.5" class="st0" width="1271.2" height="684.8"/>
<g id="Layer_4_1_">
	<g>
		<path class="st1" d="M184.6,541.9c2.1-2.7,4.7-5.1,7.5-7.1c2.8-2,6-3.6,9.3-4.6c3.3-1,6.9-1.6,10.4-1.5c3.5,0.1,7,0.7,10.4,1.7
			c3.4,1.1,6.6,2.5,9.7,4.2c3.1,1.7,5.9,3.8,8.7,5.9c2.6,2,5.5,3.6,8.6,4.9c3,1.4,6.2,2.5,9.4,3.3c3.2,0.9,6.5,1.5,9.8,2
			c3.3,0.5,6.7,0.7,10,0.8c1.7,0,3.3,0,5-0.1l2.5-0.1l2.5-0.2c3.3-0.2,6.7-0.7,10-1.2c1.7-0.3,3.3-0.6,5-0.9
			c1.6-0.3,3.3-0.8,4.9-1.1c3.3-0.8,6.5-1.8,9.7-2.8c1.6-0.5,3.2-1.1,4.8-1.7l2.4-0.9l2.4-0.9c3.2-1.2,6.2-2.6,9.3-4l-0.5,0.3
			c0.9-0.6,1.7-1.1,2.5-1.5c0.8-0.5,1.7-0.9,2.5-1.4c1.7-0.9,3.3-1.8,5-2.6c3.4-1.7,6.8-3.2,10.3-4.6c3.5-1.4,7-2.7,10.6-3.8
			l2.7-0.8l2.7-0.8c1.8-0.5,3.6-1,5.4-1.4c1.8-0.5,3.6-0.9,5.5-1.3l2.8-0.6l2.8-0.5l2.8-0.5l2.8-0.4c1.9-0.3,3.7-0.6,5.6-0.7
			c1.9-0.2,3.7-0.4,5.6-0.6l5.6-0.4c3.8-0.1,7.5-0.3,11.3-0.2l2.8,0l2.8,0.1c1.9,0.1,3.8,0.2,5.6,0.3l5.6,0.5
			c1.9,0.1,3.7,0.5,5.6,0.7c3.7,0.4,7.4,1.2,11.1,1.9c1.8,0.4,3.7,0.8,5.5,1.2c1.8,0.4,3.7,0.8,5.5,1.4l5.4,1.5
			c1.8,0.5,3.6,1.2,5.4,1.7c1.8,0.6,3.6,1.1,5.3,1.8l5.3,2l2.6,1l2.6,1.1l5.2,2.2c3.4,1.6,6.8,3.3,10.1,4.9l-1.1-0.4
			c3.4,0.9,7.1,1.8,10.7,2.7c3.6,0.8,7.3,1.6,10.9,2.3c7.3,1.5,14.7,2.7,22,3.8c3.7,0.5,7.4,1,11.1,1.4c3.7,0.4,7.4,0.8,11.1,1.1
			l5.6,0.4l5.6,0.3c1.9,0.1,3.7,0.2,5.6,0.2c1.9,0.1,3.7,0.1,5.5,0.1c1.8,0,3.7,0.1,5.5,0l5.5-0.1c1.8,0,3.7-0.1,5.5-0.2
			c1.8-0.1,3.7-0.2,5.5-0.3c3.7-0.2,7.3-0.7,10.9-1.1c3.6-0.5,7.2-1,10.8-1.7c1.8-0.3,3.6-0.7,5.3-1.1c1.7-0.4,3.5-0.8,5.2-1.3
			l5.2-1.5c1.7-0.5,3.4-1.2,5-1.7c1.7-0.5,3.3-1.3,4.9-2l2.4-1c0.8-0.3,1.6-0.8,2.4-1.2l2.3-1.2c0.8-0.4,1.6-0.8,2.3-1.3l4.5-2.7
			l-1.6,1.4l0.3-0.4l0.2-0.2l0.4-0.4l0.8-0.7c0.5-0.4,1-0.9,1.5-1.3c1-0.8,1.9-1.5,2.9-2.3c2-1.4,3.9-2.7,6-3.8
			c4-2.3,8.2-4.2,12.4-5.9c4.2-1.6,8.5-3,12.8-4.1c2.1-0.6,4.3-1,6.5-1.6c2.2-0.4,4.3-0.9,6.5-1.3l6.5-1l6.5-0.8l6.5-0.5
			c2.2-0.2,4.3-0.2,6.5-0.3c2.2-0.1,4.3-0.1,6.5-0.2c2.2,0,4.3-0.1,6.5,0l6.5,0.1c2.2,0.1,4.3,0.2,6.5,0.3l3.2,0.2
			c1.1,0.1,2.1,0.2,3.2,0.3l6.4,0.5c2.1,0.2,4.3,0.5,6.4,0.7c2.1,0.3,4.3,0.5,6.4,0.8l6.4,0.9c2.1,0.3,4.2,0.6,6.3,1
			c4.2,0.8,8.4,1.4,12.6,2.3c4.2,0.9,8.4,1.6,12.5,2.6l6.2,1.4l3.1,0.7l3.1,0.8c4.1,1.1,8.3,2,12.4,3.2l12.3,3.4l0.7,0.2l0.9,0.5
			l0.8,0.4l0.9,0.5c0.6,0.3,1.3,0.6,1.9,0.9c1.3,0.6,2.6,1.1,4,1.7c2.7,1.1,5.5,2.1,8.2,3c1.4,0.5,2.8,0.9,4.2,1.3
			c1.4,0.4,2.8,0.8,4.2,1.2c2.8,0.8,5.7,1.5,8.6,2.1c2.9,0.6,5.8,1.2,8.7,1.6l4.4,0.6l4.4,0.5c2.9,0.3,5.9,0.5,8.8,0.6l2.2,0.1
			l2.2,0c1.5,0,2.9,0.1,4.4,0l4.4-0.1l4.4-0.3c1.5-0.1,2.9-0.2,4.4-0.4c1.5-0.2,2.9-0.3,4.4-0.5l4.4-0.6c1.5-0.2,2.9-0.5,4.3-0.8
			l2.2-0.4c0.7-0.1,1.4-0.3,2.1-0.5l4.3-1l4.2-1.2l2.1-0.6l2.1-0.7l4.2-1.4c1.4-0.5,2.8-1,4.1-1.5c2.8-1,5.4-2.2,8.2-3.4
			c1.4-0.6,2.7-1.3,4-1.9l4-1.9l-3,2.7c0.6-0.9,0.8-1.1,1.2-1.6c0.3-0.4,0.7-0.8,1-1.2c0.7-0.7,1.3-1.4,2-2c1.4-1.2,2.7-2.4,4.2-3.4
			c2.9-2.1,5.8-3.8,8.9-5.2c3-1.5,6.2-2.6,9.3-3.6c1.6-0.5,3.1-0.9,4.7-1.3c1.6-0.4,3.2-0.8,4.7-1.1c1.6-0.3,3.2-0.6,4.7-0.8
			c1.6-0.2,3.2-0.5,4.7-0.6l4.7-0.4l4.7-0.2c1.6-0.1,3.1,0,4.7-0.1l2.3,0l2.3,0.1c1.6,0.1,3.1,0.1,4.7,0.2l4.6,0.3
			c1.5,0.1,3.1,0.3,4.6,0.4c1.5,0.2,3.1,0.3,4.6,0.5l4.6,0.6c1.5,0.2,3,0.4,4.5,0.7c3,0.5,6,1,9,1.7c3,0.6,6,1.2,8.9,2
			c3,0.7,5.9,1.4,8.8,2.2c2.9,0.8,5.9,1.5,8.8,2.4c2.9,0.9,5.8,1.7,8.7,2.6l8.6,2.8l0.8,0.3l0.9,0.6l0.5,0.3l0.7,0.4
			c0.5,0.3,1,0.6,1.5,0.9c1.1,0.6,2.1,1.1,3.2,1.6c2.2,1.1,4.5,2,6.8,2.9c2.3,0.9,4.7,1.6,7.1,2.4c2.4,0.7,4.8,1.3,7.3,1.9
			c2.5,0.5,4.9,1,7.4,1.4l3.7,0.5l3.8,0.4c2.5,0.2,5,0.4,7.6,0.5l1.9,0.1l1.9,0c1.3,0,2.5,0,3.8,0l3.8-0.1c1.3,0,2.5-0.2,3.8-0.2
			c2.5-0.1,5.1-0.5,7.6-0.7l3.8-0.5c1.3-0.2,2.5-0.4,3.8-0.6l3.8-0.7c1.3-0.2,2.5-0.5,3.8-0.8c2.5-0.5,5-1.2,7.5-1.8l1.9-0.5
			l1.9-0.6l3.7-1.1c2.5-0.8,4.9-1.6,7.4-2.4l7.3-2.7l-1.6,0.9c0.8-0.6,1.4-1.1,2-1.5c0.6-0.5,1.3-0.9,1.9-1.4
			c1.3-0.9,2.6-1.7,3.9-2.5c2.6-1.6,5.3-3.1,8.1-4.5c2.7-1.4,5.5-2.6,8.4-3.8c2.8-1.1,5.7-2.2,8.7-3.1c2.9-0.9,5.9-1.7,8.9-2.3
			c1.5-0.3,3-0.6,4.5-0.9c1.5-0.2,3-0.5,4.6-0.7l4.6-0.5l4.6-0.2c1.5-0.1,3.1,0,4.6,0c1.5,0,3.1,0.1,4.6,0.2c3.1,0.1,6.1,0.6,9.1,1
			l4.5,0.8l1.1,0.2l1.1,0.3l2.2,0.5c3,0.7,5.9,1.7,8.8,2.6l4.3,1.6l2.1,0.8l2.1,0.9l4.1,1.9c1.4,0.7,2.7,1.4,4,2.1
			c2.7,1.3,5.2,3,7.8,4.5c1.3,0.8,2.5,1.6,3.8,2.5l3.7,2.5c2.4,1.8,4.7,3.6,7.1,5.5l-0.8-0.5c0.5,0.3,1.2,0.6,1.9,0.9
			c0.7,0.3,1.3,0.6,2,0.8c1.4,0.5,2.8,1.1,4.2,1.6c2.8,1,5.7,1.9,8.5,2.7c2.9,0.8,5.8,1.5,8.7,2.1c1.5,0.3,2.9,0.6,4.4,0.9l2.2,0.4
			l2.2,0.3l2.2,0.3l2.2,0.3c1.5,0.2,3,0.4,4.5,0.5c3,0.3,6,0.5,9,0.6c1.5,0,3,0.1,4.5,0.1l4.5,0c3-0.1,6-0.2,9-0.5c3-0.2,6-0.6,9-1
			c3-0.5,6-0.9,8.9-1.5c1.5-0.3,3-0.5,4.4-0.9l4.4-1.1c1.5-0.3,2.9-0.8,4.4-1.2c1.5-0.4,2.9-0.8,4.4-1.3c2.9-1,5.8-1.9,8.6-3
			c1.4-0.5,2.8-1.1,4.3-1.6l4.2-1.8l2.1-0.9c0.7-0.3,1.4-0.7,2.1-1l4.1-2c2.7-1.4,5.4-2.9,8.1-4.3l0.2-0.1l0.1,0
			c0.9-0.2,1.8-0.3,2.7-0.4c0.9-0.1,1.8-0.2,2.6-0.2c0.9-0.1,1.8-0.1,2.6-0.1c0.9,0,1.8,0,2.6,0c0.9,0,1.8,0.1,2.6,0.1
			c0.9,0,1.7,0.1,2.6,0.2l1.3,0.1l1.3,0.2c0.9,0.1,1.7,0.2,2.6,0.4l2.6,0.6l2.5,0.7c0.8,0.2,1.7,0.6,2.5,0.9c0.8,0.3,1.6,0.6,2.4,1
			l2.3,1.2c0.8,0.4,1.5,0.9,2.2,1.4l1.1,0.7c0.4,0.3,0.7,0.5,1,0.8l2,1.6l-2.1-1.5c-0.4-0.2-0.7-0.5-1.1-0.7l-1.1-0.6
			c-0.8-0.4-1.5-0.8-2.3-1.2l-2.4-1c-0.8-0.4-1.6-0.6-2.4-0.9c-0.8-0.3-1.6-0.6-2.5-0.7l-2.5-0.6l-2.5-0.4c-0.8-0.2-1.7-0.2-2.6-0.3
			l-1.3-0.1l-1.3-0.1c-0.9,0-1.7-0.1-2.6-0.1c-0.9,0-1.7,0-2.6,0c-0.9,0.1-1.7,0.1-2.6,0.2c-0.8,0.1-1.7,0.1-2.5,0.3
			c-0.8,0.1-1.7,0.2-2.5,0.4c-0.8,0.1-1.7,0.3-2.5,0.5l0.3-0.1c-2.7,1.6-5.3,3.2-8,4.7l-4.1,2.2c-0.7,0.4-1.4,0.7-2,1.1l-2.1,1
			l-4.2,2c-1.4,0.6-2.8,1.2-4.3,1.9c-2.8,1.3-5.7,2.3-8.6,3.4c-1.4,0.6-2.9,1-4.4,1.5c-1.5,0.5-2.9,1-4.4,1.4l-4.5,1.3
			c-1.5,0.4-3,0.8-4.5,1.1c-3,0.8-6.1,1.3-9.1,1.9c-3.1,0.5-6.2,1-9.3,1.3c-3.1,0.4-6.2,0.6-9.3,0.8l-4.7,0.2c-1.6,0-3.1,0-4.7,0.1
			c-3.1,0-6.3-0.1-9.4-0.3c-1.6-0.1-3.1-0.2-4.7-0.3l-2.3-0.2l-2.3-0.3l-2.3-0.3l-2.3-0.3c-1.6-0.2-3.1-0.5-4.6-0.7
			c-3.1-0.5-6.2-1.2-9.2-1.9c-3.1-0.7-6.1-1.6-9.1-2.5c-1.5-0.5-3-1-4.5-1.5c-0.8-0.3-1.5-0.5-2.3-0.8c-0.8-0.3-1.5-0.6-2.3-1
			l-0.3-0.1l-0.5-0.4c-2.3-1.7-4.6-3.4-6.9-5l-3.6-2.3c-1.2-0.8-2.4-1.6-3.6-2.2c-2.5-1.4-4.9-2.8-7.4-4c-1.3-0.6-2.5-1.3-3.8-1.8
			l-3.9-1.6l-1.9-0.8l-2-0.7l-3.9-1.4c-2.7-0.7-5.3-1.6-8-2.1l-2-0.4l-1-0.2l-1-0.2l-4.1-0.6c-2.7-0.3-5.5-0.6-8.2-0.6
			c-1.4-0.1-2.8-0.1-4.1-0.1c-1.4,0.1-2.8,0-4.1,0.1l-4.1,0.3l-4.1,0.5c-1.4,0.2-2.7,0.5-4.1,0.7c-1.4,0.2-2.7,0.6-4,0.9
			c-2.7,0.6-5.3,1.4-7.9,2.3c-2.6,0.9-5.2,1.9-7.7,2.9c-2.5,1.1-5,2.3-7.5,3.6c-2.4,1.3-4.8,2.7-7.1,4.1c-1.2,0.7-2.3,1.5-3.4,2.3
			c-0.6,0.4-1.1,0.8-1.6,1.2c-0.5,0.4-1.1,0.8-1.4,1.1l-0.7,0.6l-0.8,0.3l-7.6,3c-2.6,0.9-5.1,1.9-7.7,2.8l-3.9,1.3l-2,0.6l-2,0.6
			c-2.6,0.7-5.3,1.5-8,2.1c-1.3,0.3-2.7,0.7-4,0.9l-4.1,0.8c-1.3,0.3-2.7,0.5-4.1,0.7l-4.1,0.7c-2.7,0.3-5.5,0.8-8.3,1
			c-1.4,0.1-2.8,0.3-4.1,0.3l-4.2,0.2c-1.4,0.1-2.8,0.1-4.2,0.1l-2.1,0l-2.1,0c-2.8,0-5.6-0.2-8.4-0.4l-4.2-0.4l-4.2-0.5
			c-2.8-0.4-5.5-0.9-8.3-1.4c-2.8-0.6-5.5-1.2-8.2-2c-2.7-0.8-5.4-1.6-8.1-2.6c-2.7-1-5.3-2-7.9-3.2c-1.3-0.6-2.6-1.2-3.9-1.9
			c-0.7-0.4-1.3-0.7-2-1.1l-1-0.6l-0.5-0.3l-0.6-0.4l1.7,0.9l-8.4-2.6c-2.8-0.9-5.6-1.6-8.4-2.4c-2.8-0.8-5.6-1.5-8.4-2.2
			c-2.8-0.8-5.7-1.4-8.5-2c-2.8-0.7-5.7-1.2-8.5-1.8c-2.8-0.6-5.7-1-8.5-1.5c-1.4-0.3-2.8-0.4-4.3-0.6l-4.3-0.6
			c-1.4-0.2-2.8-0.3-4.3-0.4c-1.4-0.1-2.8-0.3-4.3-0.4l-4.3-0.3c-1.4-0.1-2.8-0.1-4.2-0.1l-2.1,0l-2.1,0c-1.4,0-2.8,0-4.2,0.1
			l-4.2,0.2l-4.1,0.4c-1.4,0.2-2.7,0.4-4.1,0.6c-1.4,0.2-2.7,0.5-4,0.7c-1.3,0.3-2.6,0.6-4,0.9c-1.3,0.4-2.6,0.7-3.9,1.1
			c-2.5,0.8-5,1.8-7.3,2.9c-2.3,1.1-4.5,2.4-6.4,3.8c-1,0.7-1.9,1.5-2.7,2.2c-0.4,0.4-0.8,0.8-1.1,1.1c-0.2,0.2-0.3,0.4-0.5,0.5
			l-0.2,0.2l0,0.1l0,0l0.1-0.1l-3,2.7l-4.3,2.2c-1.5,0.7-2.9,1.5-4.4,2.1c-3,1.3-5.9,2.7-9,3.8c-1.5,0.6-3,1.2-4.5,1.7l-4.6,1.5
			l-2.3,0.8l-2.3,0.7l-4.7,1.3l-4.7,1.1c-0.8,0.2-1.6,0.4-2.4,0.6l-2.4,0.5c-1.6,0.3-3.2,0.6-4.8,0.9l-4.8,0.7
			c-1.6,0.3-3.2,0.4-4.8,0.6c-1.6,0.2-3.2,0.4-4.9,0.4l-4.9,0.3l-4.9,0.1c-1.6,0.1-3.2,0-4.9,0l-2.4,0L941,559
			c-3.2-0.1-6.5-0.4-9.7-0.7l-4.8-0.5l-4.8-0.7c-3.2-0.5-6.4-1.1-9.6-1.8c-3.2-0.7-6.3-1.4-9.4-2.3c-1.6-0.4-3.1-0.9-4.7-1.3
			c-1.5-0.5-3.1-0.9-4.6-1.5c-3.1-1-6.1-2.2-9.2-3.4c-1.5-0.6-3-1.3-4.5-1.9c-0.8-0.3-1.5-0.7-2.3-1.1l-1.2-0.6l-1.3-0.7l1.6,0.6
			l-12-3.4c-4-1.1-8-2.1-12-3.1l-3-0.8l-3-0.7l-6.1-1.4c-4-1-8.1-1.7-12.1-2.6c-4-0.9-8.1-1.5-12.2-2.2c-2-0.4-4.1-0.7-6.1-1
			l-6.1-0.9c-2-0.3-4.1-0.5-6.1-0.8c-2-0.2-4.1-0.5-6.1-0.7l-6.1-0.6c-1-0.1-2-0.2-3.1-0.3l-3.1-0.2c-2-0.1-4.1-0.3-6.1-0.4
			l-6.1-0.2c-2-0.1-4.1,0-6.1,0c-2,0-4.1,0-6.1,0.1c-2,0.1-4.1,0.1-6.1,0.3l-6,0.5l-6,0.7l-6,0.9l-5.9,1.1c-1.9,0.5-3.9,0.8-5.8,1.4
			c-3.8,1-7.6,2.1-11.2,3.5c-3.6,1.4-7.1,3-10.4,4.8c-1.7,0.9-3.2,1.9-4.7,2.9c-0.7,0.5-1.4,1-2.1,1.6c-0.3,0.3-0.6,0.5-0.9,0.8
			l-0.4,0.4l-0.1,0.1l-0.1,0.1l0.1-0.1l-1.6,1.4l-5.3,3.1c-0.9,0.5-1.8,1-2.7,1.4l-2.7,1.4c-0.9,0.4-1.8,0.9-2.7,1.3l-2.8,1.2
			c-1.9,0.8-3.7,1.6-5.6,2.2c-1.9,0.6-3.8,1.3-5.7,1.9l-5.8,1.6c-1.9,0.5-3.9,0.9-5.8,1.3c-1.9,0.5-3.9,0.8-5.8,1.1
			c-3.9,0.8-7.8,1.2-11.7,1.7c-3.9,0.4-7.8,0.8-11.7,1c-1.9,0.1-3.9,0.2-5.8,0.3c-1.9,0-3.9,0.1-5.8,0.1l-5.8,0
			c-1.9,0-3.9-0.1-5.8-0.1c-1.9,0-3.9-0.1-5.8-0.2c-1.9-0.1-3.9-0.2-5.8-0.3l-5.8-0.5l-5.8-0.6c-3.8-0.4-7.7-0.9-11.5-1.4
			c-3.8-0.5-7.6-1.1-11.4-1.7c-7.6-1.3-15.1-2.7-22.6-4.4c-3.8-0.8-7.5-1.7-11.2-2.6c-3.8-1-7.4-1.9-11.2-3l-0.5-0.2l-0.6-0.3
			c-3.2-1.6-6.3-3.3-9.5-4.8l-4.9-2.2l-2.4-1.1l-2.5-1l-4.9-2c-1.6-0.7-3.3-1.2-5-1.8c-1.7-0.6-3.3-1.2-5-1.7l-5.1-1.5
			c-1.7-0.5-3.4-1-5.1-1.4c-1.7-0.4-3.4-0.9-5.2-1.3c-3.5-0.7-6.9-1.5-10.4-2c-1.8-0.3-3.5-0.6-5.3-0.8l-5.3-0.6
			c-1.8-0.2-3.5-0.3-5.3-0.4l-2.7-0.2l-2.7-0.1c-3.6-0.2-7.1-0.1-10.7-0.1l-5.3,0.2c-1.8,0.1-3.5,0.3-5.3,0.4
			c-1.8,0.1-3.5,0.3-5.3,0.6l-2.7,0.3l-2.6,0.4l-2.6,0.4l-2.6,0.5c-1.8,0.3-3.5,0.7-5.2,1.1c-1.7,0.4-3.5,0.8-5.2,1.2l-2.6,0.7
			l-2.6,0.7c-3.4,1-6.8,2.1-10.2,3.3c-3.3,1.2-6.7,2.5-9.9,4c-1.6,0.7-3.2,1.5-4.8,2.3c-1.6,0.8-3.2,1.7-4.5,2.5l-0.4,0.2l-0.1,0.1
			c-3.3,1.3-6.5,2.6-9.8,3.8l-2.5,0.9l-2.5,0.8c-1.7,0.5-3.3,1.1-5,1.5c-3.4,1-6.8,1.8-10.2,2.6c-1.7,0.3-3.4,0.7-5.2,1
			c-1.7,0.3-3.5,0.6-5.2,0.8c-3.5,0.4-7,0.8-10.5,0.9l-2.6,0.1l-2.6,0c-1.8,0-3.5-0.1-5.3-0.2c-3.5-0.3-7-0.6-10.5-1.2
			c-3.5-0.6-6.9-1.5-10.3-2.5c-3.4-1.1-6.7-2.4-9.8-4c-3.2-1.6-6.2-3.4-9-5.7c-2.6-2.2-5.2-4.2-8.1-6c-2.9-1.8-5.8-3.3-9-4.5
			c-3.1-1.2-6.4-1.9-9.8-2.1c-3.3-0.2-6.7,0.1-10,0.9c-3.3,0.9-6.4,2.2-9.3,4.1C189.5,537.1,186.8,539.3,184.6,541.9z"/>
	</g>
</g>
<g id="Layer_4_2_">
	<g>
		<path class="st2" d="M205.6,619.2c2.1-2.7,4.6-5,7.3-7c2.8-2,5.8-3.5,9.1-4.6c3.3-1,6.7-1.5,10.1-1.5c3.4,0.1,6.9,0.7,10.1,1.8
			c3.3,1.1,6.4,2.5,9.4,4.3c3,1.7,5.7,3.7,8.4,5.9c2.5,2,5.4,3.7,8.4,5c3,1.4,6.1,2.5,9.3,3.4c3.2,0.9,6.4,1.6,9.7,2.1
			c3.3,0.5,6.6,0.7,9.9,0.8c1.7,0,3.3,0.1,5,0l2.5-0.1l2.5-0.2c3.3-0.2,6.6-0.7,9.9-1.2c1.6-0.3,3.3-0.6,4.9-0.9
			c1.6-0.3,3.2-0.8,4.8-1.1c3.2-0.8,6.4-1.7,9.6-2.8c1.6-0.5,3.1-1.1,4.7-1.6l2.3-0.8l2.3-0.9c3.1-1.2,6.1-2.6,9.2-3.9l-0.4,0.2
			c1.7-1.1,3.2-2,4.8-2.9c1.6-0.9,3.2-1.7,4.9-2.6c3.3-1.6,6.6-3.1,10-4.5c3.4-1.3,6.8-2.6,10.3-3.7l2.6-0.8l2.6-0.8l2.6-0.7
			l2.7-0.7c1.8-0.5,3.6-0.9,5.3-1.2l2.7-0.6l2.7-0.5l2.7-0.5l2.7-0.4c1.8-0.3,3.6-0.6,5.4-0.7c1.8-0.2,3.6-0.4,5.5-0.5l5.5-0.4
			c3.7-0.1,7.3-0.3,11-0.1l2.7,0l2.7,0.1c1.8,0.1,3.7,0.2,5.5,0.3l5.5,0.5c1.8,0.2,3.6,0.5,5.5,0.7c3.6,0.4,7.2,1.2,10.8,1.9
			c1.8,0.4,3.6,0.8,5.4,1.2c1.8,0.4,3.6,0.8,5.3,1.4l5.3,1.5c1.8,0.5,3.5,1.2,5.2,1.7c1.7,0.6,3.5,1.1,5.2,1.8l5.1,2
			c0.9,0.3,1.7,0.7,2.6,1l2.5,1.1l5,2.2c3.3,1.5,6.6,3.2,9.8,4.9l-0.8-0.3c3.4,1,7,1.9,10.6,2.7c3.6,0.8,7.1,1.6,10.7,2.4
			c7.2,1.5,14.4,2.8,21.7,3.9c3.6,0.5,7.3,1.1,10.9,1.5c3.6,0.5,7.3,0.8,10.9,1.2l5.5,0.5l5.5,0.3c1.8,0.1,3.6,0.2,5.5,0.3
			c1.8,0.1,3.6,0.1,5.5,0.2c1.8,0,3.6,0.1,5.5,0.1l5.5-0.1c1.8,0,3.6-0.1,5.4-0.2c1.8-0.1,3.6-0.2,5.4-0.3c3.6-0.2,7.2-0.7,10.8-1
			c3.6-0.5,7.1-1,10.6-1.7l2.6-0.5c0.9-0.2,1.7-0.4,2.6-0.6c1.7-0.4,3.5-0.8,5.2-1.3l5.1-1.5c1.7-0.5,3.3-1.2,5-1.8
			c1.7-0.6,3.3-1.3,4.9-2l2.4-1c0.8-0.4,1.6-0.8,2.3-1.2l2.3-1.2c0.8-0.4,1.6-0.8,2.3-1.3l4.4-2.7l-1.2,1c0.7-0.8,1-1.1,1.5-1.5
			c0.5-0.4,0.9-0.8,1.4-1.2c0.9-0.8,1.8-1.5,2.7-2.2c1.9-1.3,3.7-2.6,5.7-3.7c3.8-2.3,7.8-4.1,11.9-5.8c4.1-1.6,8.2-3,12.3-4.1
			c2.1-0.6,4.2-1,6.3-1.6c2.1-0.4,4.2-0.8,6.3-1.3l6.3-1l6.3-0.7l6.3-0.5c2.1-0.2,4.2-0.2,6.3-0.3c2.1-0.1,4.2-0.1,6.3-0.1
			c2.1,0,4.2-0.1,6.3,0l6.3,0.2c2.1,0.1,4.2,0.2,6.3,0.3c4.2,0.2,8.4,0.7,12.6,1c2.1,0.2,4.2,0.5,6.2,0.7c2.1,0.3,4.2,0.5,6.2,0.8
			l6.2,0.9c2.1,0.3,4.1,0.6,6.2,1c4.1,0.8,8.2,1.4,12.3,2.3c4.1,0.9,8.2,1.6,12.2,2.6l6.1,1.4l3,0.7l3,0.8c4,1.1,8.1,2,12.1,3.2
			l12,3.4l0.5,0.2l0.7,0.3c0.5,0.2,1.1,0.6,1.8,0.9c0.6,0.3,1.3,0.6,1.9,0.9c1.3,0.6,2.6,1.2,4,1.7c2.7,1.1,5.4,2.1,8.2,3.1
			c1.4,0.5,2.8,0.9,4.2,1.4c1.4,0.4,2.8,0.8,4.2,1.2c2.8,0.8,5.6,1.5,8.5,2.1c2.9,0.6,5.7,1.2,8.6,1.6l4.3,0.6l4.3,0.5
			c2.9,0.3,5.8,0.5,8.7,0.6l2.2,0.1l2.2,0c1.5,0,2.9,0.1,4.4,0l4.4-0.1l4.4-0.3c1.5-0.1,2.9-0.2,4.4-0.4c1.4-0.2,2.9-0.3,4.3-0.5
			l4.3-0.6c1.4-0.2,2.9-0.5,4.3-0.8l2.1-0.4l2.1-0.5l4.3-1l4.2-1.2l2.1-0.6l2.1-0.7l4.1-1.4c1.4-0.5,2.7-1.1,4.1-1.6
			c2.7-1,5.4-2.3,8.1-3.4c1.3-0.6,2.6-1.3,3.9-1.9l3.9-2l-2.2,2.1c0.5-0.7,0.7-1,1-1.4c0.3-0.4,0.6-0.7,0.9-1.1
			c0.6-0.7,1.2-1.3,1.8-1.9c1.3-1.2,2.5-2.3,3.9-3.3c2.7-2,5.5-3.6,8.4-5.1c2.9-1.4,5.9-2.6,8.8-3.6c1.5-0.5,3-0.9,4.5-1.3
			c1.5-0.4,3-0.8,4.6-1.1c1.5-0.3,3-0.6,4.6-0.8c1.5-0.2,3.1-0.4,4.6-0.6l4.6-0.4l4.6-0.2c1.5-0.1,3,0,4.6-0.1l2.3,0l2.3,0.1
			c1.5,0.1,3,0.1,4.5,0.2l4.5,0.3c1.5,0.1,3,0.3,4.5,0.4c1.5,0.2,3,0.3,4.5,0.5l4.4,0.6c1.5,0.2,3,0.4,4.4,0.7
			c2.9,0.5,5.9,1,8.8,1.7c2.9,0.6,5.8,1.2,8.7,1.9c2.9,0.7,5.8,1.4,8.6,2.2c2.9,0.8,5.7,1.5,8.5,2.4c2.8,0.9,5.7,1.7,8.5,2.6
			l8.4,2.8l0.6,0.2l0.7,0.5l0.6,0.4l0.7,0.4c0.5,0.3,1,0.6,1.5,0.9c1.1,0.6,2.1,1.1,3.2,1.7c2.2,1.1,4.5,2,6.8,2.9
			c2.3,0.9,4.7,1.7,7,2.4c2.4,0.7,4.8,1.3,7.2,1.9c2.4,0.5,4.9,1,7.4,1.4l3.7,0.5l3.7,0.4c2.5,0.2,5,0.4,7.5,0.5l1.9,0.1l1.9,0
			c1.3,0,2.5,0,3.8,0l3.8-0.1c1.3,0,2.5-0.2,3.8-0.3c2.5-0.1,5-0.5,7.5-0.8l3.8-0.6c1.3-0.2,2.5-0.4,3.7-0.6l3.7-0.7
			c1.2-0.2,2.5-0.6,3.7-0.8c2.5-0.5,4.9-1.2,7.4-1.9c1.2-0.3,2.5-0.7,3.7-1.1l3.7-1.1c2.4-0.8,4.8-1.7,7.2-2.5l7.1-2.8l-1.2,0.7
			c0.7-0.6,1.3-1,1.9-1.5c0.6-0.5,1.2-0.9,1.8-1.3c1.2-0.9,2.5-1.7,3.7-2.5c2.5-1.6,5.1-3.1,7.8-4.4c2.6-1.4,5.3-2.6,8.1-3.8
			c2.8-1.1,5.5-2.2,8.4-3.1c2.8-0.9,5.7-1.7,8.6-2.3c1.5-0.3,2.9-0.6,4.4-0.9c1.5-0.2,2.9-0.5,4.4-0.7l4.4-0.5l4.5-0.2
			c1.5-0.1,3,0,4.5,0c1.5,0,3,0.1,4.5,0.2c3,0.1,5.9,0.6,8.9,0.9l4.4,0.8c1.5,0.2,2.9,0.7,4.3,1c2.9,0.6,5.7,1.7,8.5,2.5l4.1,1.6
			l2.1,0.8l2,0.9l4,1.8l3.9,2.1c2.6,1.3,5.1,2.9,7.6,4.5c1.3,0.7,2.4,1.6,3.7,2.4l3.6,2.5c2.3,1.7,4.6,3.6,6.9,5.4l-0.6-0.4
			c1.2,0.6,2.6,1.2,3.9,1.7c1.3,0.5,2.7,1.1,4.1,1.6c2.8,1,5.6,1.9,8.4,2.7c2.8,0.8,5.7,1.5,8.6,2.1c1.4,0.3,2.9,0.6,4.3,0.9
			l2.2,0.4l2.2,0.3l2.2,0.3l2.2,0.3c1.5,0.2,2.9,0.4,4.4,0.5c1.5,0.1,2.9,0.3,4.4,0.3c1.5,0.1,3,0.2,4.4,0.2c1.5,0,3,0.1,4.4,0.1
			l4.4-0.1c3-0.1,5.9-0.2,8.9-0.5c3-0.2,5.9-0.6,8.8-1c2.9-0.5,5.9-0.9,8.8-1.6c1.5-0.3,2.9-0.6,4.4-0.9l4.3-1.1
			c1.5-0.3,2.9-0.8,4.3-1.2c1.4-0.4,2.9-0.8,4.3-1.3c2.8-1,5.7-1.9,8.4-3c1.4-0.6,2.8-1.1,4.2-1.7l4.1-1.8l2-0.9l2-1l4-2
			c2.7-1.4,5.2-2.9,7.9-4.3l0.1-0.1l0.1,0c0.9-0.2,1.7-0.3,2.6-0.4c0.9-0.1,1.7-0.2,2.6-0.3c0.9-0.1,1.7-0.1,2.6-0.2
			c0.9-0.1,1.7,0,2.6,0c0.9,0,1.7,0.1,2.6,0.1c0.9,0,1.7,0.1,2.6,0.2l1.3,0.1l1.3,0.2c0.8,0.1,1.7,0.2,2.5,0.4l2.5,0.5l2.5,0.7
			c0.8,0.2,1.6,0.6,2.4,0.8c0.8,0.3,1.6,0.6,2.4,1l2.3,1.1c0.7,0.4,1.5,0.9,2.2,1.3l1.1,0.7l1,0.8l2,1.6l-2.1-1.5l-1-0.7l-1.1-0.6
			c-0.7-0.4-1.5-0.9-2.2-1.2l-2.3-1c-0.8-0.4-1.6-0.6-2.4-0.9c-0.8-0.3-1.6-0.6-2.4-0.7l-2.5-0.6l-2.5-0.4c-0.8-0.2-1.7-0.2-2.5-0.3
			l-1.3-0.1l-1.3-0.1c-0.8,0-1.7-0.1-2.5-0.1c-0.8,0-1.7,0-2.5,0c-0.8,0-1.7,0.1-2.5,0.1c-0.8,0.1-1.7,0.1-2.5,0.2
			c-1.7,0.2-3.3,0.5-4.9,0.8l0.2-0.1c-2.6,1.5-5.1,3.2-7.8,4.6l-4,2.2l-2,1.1l-2,1l-4.1,2c-1.4,0.6-2.8,1.2-4.2,1.8
			c-2.8,1.3-5.6,2.3-8.4,3.4c-1.4,0.6-2.9,1-4.3,1.5c-1.4,0.5-2.9,1-4.3,1.4l-4.4,1.3c-1.5,0.4-2.9,0.7-4.4,1.1
			c-2.9,0.8-5.9,1.3-8.9,1.9c-3,0.5-6,1-9,1.3c-3,0.4-6.1,0.6-9.1,0.8l-4.6,0.2c-1.5,0-3.1,0-4.6,0c-1.5,0-3.1-0.1-4.6-0.1
			c-1.5,0-3.1-0.1-4.6-0.2c-1.5-0.1-3-0.2-4.6-0.4l-2.3-0.2l-2.3-0.3l-2.3-0.3l-2.3-0.3c-1.5-0.2-3-0.5-4.5-0.8c-3-0.5-6-1.2-9-1.9
			c-3-0.8-5.9-1.6-8.9-2.5c-1.5-0.5-2.9-1-4.4-1.5c-1.5-0.6-2.9-1.1-4.4-1.8l-0.2-0.1l-0.4-0.3c-2.3-1.7-4.5-3.4-6.7-5l-3.5-2.3
			c-1.2-0.8-2.3-1.6-3.5-2.2c-2.4-1.4-4.8-2.9-7.3-4.1l-3.7-1.9l-3.8-1.6l-1.9-0.8l-1.9-0.7l-3.9-1.4c-2.7-0.7-5.3-1.6-8-2.2
			c-1.3-0.3-2.7-0.7-4-0.9l-4.1-0.7c-2.7-0.3-5.4-0.6-8.2-0.7c-1.4-0.1-2.7-0.1-4.1-0.1c-1.4,0-2.7,0-4.1,0.1l-4.1,0.3l-4.1,0.5
			c-1.4,0.2-2.7,0.5-4,0.7c-1.3,0.2-2.7,0.6-4,0.9c-2.7,0.7-5.3,1.4-7.9,2.3c-2.6,0.9-5.2,1.9-7.7,2.9c-2.5,1.1-5,2.3-7.4,3.6
			c-2.4,1.3-4.8,2.7-7.1,4.2c-1.1,0.7-2.3,1.5-3.4,2.3c-0.6,0.4-1.1,0.8-1.6,1.2c-0.5,0.4-1.1,0.8-1.5,1.2l-0.6,0.5l-0.6,0.2l-7.4,3
			c-2.5,0.9-5,1.9-7.5,2.7l-3.8,1.2c-1.3,0.4-2.5,0.8-3.8,1.2c-2.6,0.7-5.1,1.5-7.8,2.1c-1.3,0.3-2.6,0.7-3.9,0.9l-3.9,0.8
			c-1.3,0.3-2.6,0.5-4,0.7l-4,0.7c-2.7,0.3-5.3,0.7-8,0.9c-1.3,0.1-2.7,0.3-4,0.3l-4,0.2c-1.3,0.1-2.7,0.1-4.1,0.1l-2,0l-2,0
			c-2.7,0-5.4-0.2-8.1-0.4l-4-0.4l-4-0.5c-2.7-0.4-5.4-0.9-8-1.4c-2.7-0.6-5.3-1.2-7.9-2c-2.6-0.8-5.2-1.6-7.8-2.6
			c-2.6-0.9-5.1-2-7.6-3.2c-1.3-0.6-2.5-1.2-3.7-1.9c-0.6-0.3-1.2-0.7-1.9-1l-0.9-0.6l-0.5-0.3l-0.6-0.4l1.3,0.7l-8.2-2.6
			c-2.7-0.9-5.5-1.6-8.3-2.5c-2.7-0.8-5.5-1.5-8.3-2.3c-2.8-0.8-5.6-1.4-8.3-2c-2.8-0.7-5.6-1.2-8.4-1.8c-2.8-0.6-5.6-1-8.4-1.5
			c-1.4-0.3-2.8-0.4-4.2-0.6l-4.2-0.6c-1.4-0.2-2.8-0.3-4.2-0.4c-1.4-0.1-2.8-0.3-4.2-0.4l-4.2-0.3c-1.4-0.1-2.8-0.1-4.2-0.1l-2.1,0
			l-2.1,0c-1.4,0-2.8,0-4.2,0.1l-4.2,0.2l-4.1,0.4c-1.4,0.2-2.7,0.4-4.1,0.6c-1.4,0.2-2.7,0.5-4,0.8c-1.3,0.3-2.6,0.6-4,0.9
			c-1.3,0.4-2.6,0.7-3.9,1.2c-2.5,0.8-5,1.8-7.3,3c-2.3,1.2-4.5,2.5-6.5,4c-1,0.7-1.9,1.5-2.8,2.4c-0.4,0.4-0.8,0.8-1.2,1.2
			l-0.5,0.6c-0.1,0.1-0.3,0.5-0.3,0.3l-2.2,2.1l-4.2,2.1c-1.4,0.7-2.8,1.5-4.2,2.1c-2.9,1.3-5.7,2.6-8.7,3.7
			c-1.5,0.6-2.9,1.2-4.4,1.7l-4.5,1.5l-2.2,0.8l-2.3,0.7l-4.5,1.3l-4.6,1.1l-2.3,0.5l-2.3,0.5c-1.5,0.3-3.1,0.6-4.6,0.9l-4.7,0.7
			c-1.6,0.3-3.1,0.4-4.7,0.6c-1.6,0.2-3.1,0.4-4.7,0.4l-4.7,0.3l-4.7,0.1c-1.6,0.1-3.1,0-4.7,0l-2.4,0l-2.4-0.1
			c-3.1-0.1-6.3-0.4-9.4-0.7l-4.7-0.5l-4.7-0.7c-3.1-0.5-6.2-1.1-9.3-1.7c-3.1-0.7-6.1-1.4-9.2-2.3c-1.5-0.4-3-0.9-4.5-1.3
			c-1.5-0.5-3-0.9-4.5-1.5c-3-1-5.9-2.1-8.9-3.3c-1.5-0.6-2.9-1.2-4.4-1.9c-0.7-0.3-1.5-0.7-2.2-1c-0.8-0.4-1.4-0.7-2.3-1.2l1.2,0.5
			l-11.8-3.4c-3.9-1.1-7.9-2.1-11.8-3.1l-3-0.8l-3-0.7l-5.9-1.4c-4-1-8-1.7-11.9-2.6c-4-0.9-8-1.5-12-2.3c-2-0.4-4-0.7-6-1l-6-0.9
			c-2-0.3-4-0.5-6-0.8c-2-0.2-4-0.5-6-0.7c-4-0.3-8.1-0.8-12.1-1c-2-0.1-4-0.3-6-0.3l-6-0.2c-2-0.1-4,0-6,0c-2,0-4,0-6,0.1
			c-2,0.1-4,0.1-6,0.3l-6,0.5l-5.9,0.7l-5.9,0.9L734,603c-1.9,0.5-3.9,0.8-5.7,1.4c-3.8,1-7.5,2.2-11.2,3.6c-3.6,1.4-7.1,3-10.4,4.9
			c-1.7,0.9-3.2,2-4.7,3c-0.7,0.5-1.5,1.1-2.1,1.7c-0.3,0.3-0.6,0.6-1,0.8l-0.7,0.7l-0.9,0.9l-0.3,0.2l-5.1,3.1
			c-0.8,0.5-1.7,1-2.6,1.4l-2.6,1.3c-0.9,0.4-1.7,0.9-2.6,1.3l-2.7,1.1c-1.8,0.8-3.6,1.6-5.4,2.2c-1.8,0.6-3.7,1.3-5.5,1.9l-5.6,1.6
			c-1.9,0.5-3.7,0.9-5.6,1.4c-0.9,0.2-1.9,0.5-2.8,0.6l-2.8,0.5c-3.8,0.8-7.6,1.2-11.3,1.7c-3.8,0.4-7.6,0.8-11.4,1
			c-1.9,0.1-3.8,0.2-5.7,0.3c-1.9,0.1-3.8,0.1-5.7,0.2l-5.7,0c-1.9,0-3.8-0.1-5.7-0.1c-1.9,0-3.8-0.1-5.7-0.2
			c-1.9-0.1-3.8-0.2-5.6-0.3l-5.6-0.4l-5.6-0.6c-3.7-0.4-7.5-0.8-11.2-1.4c-3.7-0.5-7.4-1.1-11.1-1.7c-7.4-1.2-14.8-2.7-22.1-4.3
			c-3.7-0.8-7.3-1.7-11-2.6c-3.7-0.9-7.2-1.9-11-3l-0.4-0.1l-0.4-0.2c-3.1-1.6-6.2-3.3-9.4-4.8l-4.8-2.2l-2.4-1.1
			c-0.8-0.4-1.6-0.7-2.4-1l-4.9-2c-1.6-0.7-3.3-1.2-4.9-1.8c-1.7-0.6-3.3-1.2-5-1.7l-5-1.5c-1.7-0.5-3.4-1-5.1-1.4
			c-1.7-0.4-3.4-0.9-5.1-1.3c-3.4-0.7-6.8-1.5-10.3-2c-1.7-0.3-3.5-0.6-5.2-0.8l-5.2-0.6c-1.7-0.2-3.5-0.3-5.2-0.4l-2.6-0.2
			l-2.6-0.1c-3.5-0.2-7-0.1-10.5-0.1l-5.3,0.2c-1.8,0.1-3.5,0.3-5.2,0.4c-1.8,0.1-3.5,0.4-5.2,0.6l-2.6,0.3l-2.6,0.4l-2.6,0.4
			l-2.6,0.5c-1.7,0.3-3.4,0.7-5.2,1.1l-2.6,0.6l-2.6,0.7l-2.5,0.7l-2.5,0.8c-3.4,1-6.7,2.2-10,3.4c-3.3,1.2-6.5,2.6-9.7,4
			c-1.6,0.7-3.2,1.5-4.7,2.3c-1.5,0.8-3.1,1.7-4.5,2.5l-0.3,0.2l-0.1,0c-3.2,1.3-6.3,2.6-9.5,3.8l-2.4,0.9l-2.4,0.8
			c-1.6,0.5-3.2,1.1-4.9,1.6c-3.3,1-6.6,1.8-9.9,2.6c-1.7,0.3-3.4,0.7-5,1c-1.7,0.3-3.4,0.6-5.1,0.8c-3.4,0.5-6.8,0.8-10.3,1
			l-2.6,0.1l-2.6,0c-1.7,0-3.4-0.1-5.2-0.1c-3.4-0.2-6.9-0.6-10.3-1.2c-3.4-0.6-6.7-1.4-10-2.5c-3.3-1.1-6.5-2.3-9.6-3.9
			c-3.1-1.6-6.1-3.4-8.7-5.7c-2.5-2.1-5.2-4.2-8-5.9c-2.8-1.7-5.8-3.3-8.9-4.4c-3.1-1.2-6.4-1.9-9.7-2.1c-3.3-0.2-6.6,0.2-9.9,1
			c-3.2,0.9-6.3,2.3-9.1,4.1C210.4,614.4,207.8,616.6,205.6,619.2z"/>
	</g>
</g>
<g id="Layer_4_3_">
	<g>
		<path class="st1" d="M205.6,692.1c2-2.7,4.5-5,7.3-7c2.8-2,5.8-3.6,9.1-4.7c3.3-1.1,6.7-1.6,10.2-1.5c3.5,0,6.9,0.7,10.2,1.7
			c3.3,1.1,6.5,2.5,9.5,4.2c3,1.7,5.8,3.7,8.5,5.9c2.5,2,5.4,3.6,8.3,4.9c3,1.4,6.1,2.5,9.2,3.3c3.2,0.9,6.4,1.5,9.6,2
			c3.2,0.5,6.5,0.7,9.8,0.8c1.6,0,3.3,0,4.9,0l2.5-0.1l2.5-0.2c3.3-0.2,6.5-0.7,9.8-1.2c1.6-0.3,3.2-0.6,4.9-0.9
			c1.6-0.3,3.2-0.8,4.8-1.1c3.2-0.8,6.4-1.8,9.5-2.8c1.6-0.5,3.1-1.1,4.7-1.7l2.3-0.9l2.3-0.9c3.1-1.2,6.1-2.6,9.1-4l-0.5,0.3
			c0.9-0.6,1.6-1.1,2.5-1.5c0.8-0.5,1.6-0.9,2.4-1.4c1.6-0.9,3.3-1.8,4.9-2.6c3.3-1.7,6.7-3.2,10.1-4.6c3.4-1.4,6.9-2.7,10.4-3.8
			l2.6-0.9l2.6-0.8l2.7-0.8l2.7-0.7c1.8-0.5,3.6-0.9,5.4-1.3l2.7-0.6l2.7-0.5l2.7-0.5l2.7-0.4c1.8-0.3,3.6-0.6,5.5-0.7
			c1.8-0.2,3.7-0.4,5.5-0.6l5.5-0.4c3.7-0.1,7.4-0.3,11.1-0.2l2.8,0l2.8,0.1c1.8,0.1,3.7,0.2,5.5,0.3l5.5,0.5
			c1.8,0.2,3.7,0.5,5.5,0.7c3.7,0.4,7.3,1.2,10.9,1.9c1.8,0.4,3.6,0.8,5.4,1.2c1.8,0.4,3.6,0.8,5.4,1.4l5.3,1.5
			c1.8,0.5,3.5,1.2,5.3,1.7c1.7,0.6,3.5,1.1,5.2,1.8l5.2,2c0.9,0.3,1.7,0.7,2.6,1l2.5,1.1l5.1,2.2c3.3,1.6,6.6,3.3,9.9,4.9l-1.1-0.5
			c3.4,0.9,7,1.8,10.5,2.7c3.6,0.8,7.1,1.6,10.7,2.3c7.2,1.5,14.4,2.7,21.6,3.8c3.6,0.5,7.2,1,10.8,1.4c3.6,0.4,7.2,0.8,10.9,1.1
			l5.4,0.4l5.4,0.3c1.8,0.1,3.6,0.2,5.4,0.2c1.8,0.1,3.6,0.1,5.4,0.1c1.8,0,3.6,0.1,5.4,0l5.4-0.1c1.8,0,3.6-0.1,5.4-0.2
			c1.8-0.1,3.6-0.2,5.4-0.3c3.6-0.2,7.1-0.7,10.7-1.1c3.5-0.5,7.1-1,10.5-1.8l2.6-0.5c0.9-0.2,1.7-0.4,2.6-0.6
			c1.7-0.4,3.4-0.8,5.1-1.3l5-1.5c1.7-0.5,3.3-1.2,4.9-1.7c1.7-0.5,3.2-1.3,4.8-2l2.4-1c0.8-0.3,1.5-0.8,2.3-1.2l2.3-1.2
			c0.8-0.4,1.5-0.8,2.2-1.2l4.3-2.7l-1.6,1.4c0.8-0.9,1.1-1.2,1.6-1.7c0.5-0.4,0.9-0.9,1.4-1.3c0.9-0.8,1.9-1.5,2.8-2.3
			c1.9-1.4,3.8-2.7,5.8-3.8c3.9-2.3,8-4.2,12.1-5.9c4.1-1.6,8.3-3,12.5-4.2c2.1-0.6,4.2-1.1,6.3-1.6c2.1-0.4,4.3-0.9,6.4-1.3l6.4-1
			l6.4-0.8l6.4-0.5c2.1-0.2,4.3-0.2,6.4-0.3c2.1-0.1,4.3-0.1,6.4-0.2c2.1,0,4.3-0.1,6.4,0l6.4,0.1c2.1,0.1,4.2,0.2,6.3,0.3
			c4.2,0.2,8.4,0.7,12.6,1c2.1,0.2,4.2,0.5,6.3,0.7c2.1,0.3,4.2,0.5,6.3,0.8l6.2,0.9c2.1,0.3,4.2,0.6,6.2,1
			c4.1,0.8,8.3,1.4,12.4,2.3c4.1,0.9,8.2,1.6,12.3,2.6l6.1,1.4l3.1,0.7l3,0.8c4,1.1,8.1,2,12.1,3.2l12,3.4l0.7,0.2l0.9,0.5l0.8,0.4
			l0.9,0.4c0.6,0.3,1.2,0.6,1.9,0.9c1.3,0.6,2.6,1.1,3.9,1.7c2.6,1.1,5.3,2.1,8,3c1.4,0.5,2.7,0.9,4.1,1.3c1.4,0.4,2.8,0.8,4.1,1.2
			c2.8,0.8,5.6,1.5,8.4,2.1c2.8,0.6,5.7,1.2,8.5,1.6l4.3,0.6l4.3,0.5c2.9,0.3,5.7,0.5,8.6,0.6l2.2,0.1l2.2,0c1.4,0,2.9,0.1,4.3,0
			l4.3-0.1l4.3-0.3c1.4-0.1,2.9-0.2,4.3-0.4c1.4-0.2,2.9-0.3,4.3-0.5l4.3-0.6c1.4-0.2,2.8-0.5,4.2-0.8l2.1-0.4l2.1-0.5l4.2-1
			l4.1-1.2l2.1-0.6l2-0.7l4.1-1.4c1.4-0.5,2.7-1,4-1.5c2.7-1,5.3-2.2,8-3.4c1.3-0.6,2.6-1.2,3.9-1.9l3.9-1.9l-2.9,2.8
			c0.6-0.9,0.8-1.1,1.2-1.6c0.3-0.4,0.6-0.8,1-1.2c0.6-0.7,1.3-1.4,2-2c1.3-1.2,2.7-2.4,4.1-3.4c2.8-2.1,5.7-3.8,8.7-5.3
			c3-1.4,6-2.6,9.1-3.7c1.5-0.5,3.1-0.9,4.6-1.4c1.5-0.4,3.1-0.8,4.7-1.1c1.6-0.3,3.1-0.6,4.7-0.8c1.6-0.2,3.1-0.5,4.7-0.6l4.7-0.4
			l4.6-0.2c1.5-0.1,3.1,0,4.6-0.1l2.3,0l2.3,0.1c1.5,0.1,3.1,0.1,4.6,0.2l4.6,0.3c1.5,0.1,3,0.3,4.5,0.4c1.5,0.2,3,0.3,4.5,0.5
			l4.5,0.6c1.5,0.2,3,0.4,4.5,0.7c3,0.5,5.9,1,8.8,1.7c2.9,0.6,5.9,1.2,8.8,2c2.9,0.7,5.8,1.4,8.7,2.2c2.9,0.8,5.8,1.5,8.6,2.4
			c2.8,0.9,5.7,1.7,8.5,2.6l8.4,2.8l0.8,0.3l0.9,0.6l0.5,0.3l0.7,0.4c0.5,0.3,1,0.6,1.5,0.9c1,0.6,2.1,1.1,3.1,1.6
			c2.1,1,4.4,2,6.6,2.9c2.3,0.9,4.6,1.6,6.9,2.4c2.3,0.7,4.7,1.3,7.1,1.9c2.4,0.5,4.8,1,7.3,1.4l3.7,0.5l3.7,0.4
			c2.5,0.2,4.9,0.4,7.4,0.5l1.9,0.1l1.9,0c1.2,0,2.5,0,3.7,0l3.7-0.1c1.2,0,2.5-0.2,3.7-0.2c2.5-0.1,5-0.5,7.5-0.7l3.7-0.5
			c1.2-0.2,2.5-0.4,3.7-0.6l3.7-0.7c1.2-0.2,2.5-0.5,3.7-0.8c2.5-0.5,4.9-1.2,7.3-1.8c1.2-0.3,2.4-0.7,3.6-1l3.6-1.1
			c2.4-0.8,4.8-1.6,7.2-2.4l7.1-2.7l-1.6,1c0.8-0.6,1.3-1.1,2-1.5c0.6-0.5,1.3-0.9,1.9-1.4c1.3-0.9,2.5-1.7,3.8-2.5
			c2.6-1.6,5.2-3.1,7.9-4.5c2.7-1.4,5.4-2.6,8.2-3.8c2.8-1.1,5.6-2.2,8.5-3.1c2.9-0.9,5.8-1.7,8.7-2.3c1.5-0.3,3-0.6,4.4-0.9
			c1.5-0.2,3-0.5,4.5-0.7l4.5-0.5l4.5-0.2c1.5-0.1,3,0,4.5,0c1.5,0,3,0.1,4.5,0.2c3,0.1,6,0.6,9,1l4.4,0.8c1.5,0.2,2.9,0.7,4.4,1
			c2.9,0.7,5.7,1.7,8.6,2.6l4.2,1.6l2.1,0.8l2,0.9l4,1.9l3.9,2.1c2.7,1.3,5.1,3,7.6,4.5c1.3,0.7,2.5,1.6,3.7,2.5l3.6,2.5
			c2.3,1.8,4.6,3.6,6.9,5.4l-0.8-0.5c0.5,0.3,1.2,0.6,1.8,0.9c0.6,0.3,1.3,0.6,2,0.8c1.3,0.5,2.7,1.1,4.1,1.6c2.7,1,5.5,1.9,8.3,2.7
			c2.8,0.8,5.7,1.5,8.5,2.1c1.4,0.3,2.9,0.6,4.3,0.9l2.2,0.4l2.2,0.3l2.2,0.3l2.2,0.3c1.5,0.2,2.9,0.4,4.4,0.5
			c1.5,0.1,2.9,0.3,4.4,0.4c1.5,0.1,2.9,0.2,4.4,0.2c1.5,0,2.9,0.1,4.4,0.1l4.4,0c2.9-0.1,5.9-0.2,8.8-0.5c3-0.2,5.9-0.6,8.8-1
			c2.9-0.5,5.9-0.9,8.7-1.5c1.4-0.3,2.9-0.5,4.3-0.9l4.3-1.1c1.4-0.3,2.9-0.8,4.3-1.2c1.4-0.4,2.9-0.8,4.3-1.3c2.8-1,5.6-1.9,8.4-3
			c1.4-0.5,2.8-1.1,4.2-1.6l4.1-1.8l2-0.9l2-1l4-2c2.7-1.4,5.3-2.8,7.9-4.3l0.2-0.1l0.1,0c0.9-0.2,1.7-0.3,2.6-0.4
			c0.9-0.1,1.7-0.2,2.6-0.2c0.9-0.1,1.7-0.1,2.6-0.1c0.9,0,1.7,0,2.6,0c0.9,0,1.7,0.1,2.6,0.1c0.9,0,1.7,0.1,2.6,0.2l1.3,0.1
			l1.3,0.2c0.8,0.1,1.7,0.2,2.5,0.4l2.5,0.6l2.5,0.7c0.8,0.2,1.6,0.6,2.4,0.9c0.8,0.3,1.6,0.6,2.4,1l2.3,1.2
			c0.7,0.4,1.4,0.9,2.2,1.4l1.1,0.7l1,0.8l2,1.6l-2.1-1.5l-1-0.7l-1.1-0.6c-0.7-0.4-1.5-0.8-2.2-1.2l-2.3-1
			c-0.8-0.4-1.6-0.6-2.4-0.9c-0.8-0.3-1.6-0.6-2.4-0.7l-2.4-0.6l-2.5-0.4c-0.8-0.2-1.7-0.2-2.5-0.3l-1.3-0.1l-1.3-0.1
			c-0.8,0-1.7-0.1-2.5-0.1c-0.8,0-1.7,0-2.5,0c-0.8,0.1-1.7,0.1-2.5,0.2c-0.8,0.1-1.7,0.1-2.5,0.3c-0.8,0.1-1.7,0.2-2.5,0.4
			c-0.8,0.1-1.6,0.3-2.4,0.5l0.3-0.1c-2.6,1.6-5.1,3.2-7.8,4.7l-4,2.2l-2,1.1l-2,1l-4.1,2c-1.4,0.7-2.8,1.2-4.2,1.9
			c-2.8,1.3-5.6,2.3-8.5,3.4c-1.4,0.6-2.9,1-4.3,1.5c-1.4,0.5-2.9,1-4.3,1.4l-4.4,1.3c-1.5,0.4-3,0.8-4.4,1.1c-3,0.8-6,1.3-9,2
			c-3,0.5-6,1-9.1,1.3c-3,0.4-6.1,0.6-9.1,0.8l-4.6,0.2c-1.5,0-3.1,0-4.6,0.1c-1.5,0-3.1,0-4.6-0.1c-1.5,0-3.1-0.1-4.6-0.2
			c-1.5-0.1-3.1-0.2-4.6-0.3l-2.3-0.2l-2.3-0.3l-2.3-0.3l-2.3-0.3c-1.5-0.2-3-0.5-4.6-0.7c-3-0.5-6-1.2-9-1.9c-3-0.7-6-1.6-8.9-2.5
			c-1.5-0.5-3-1-4.4-1.5c-0.7-0.3-1.5-0.5-2.2-0.8c-0.8-0.3-1.4-0.6-2.3-1l-0.3-0.1l-0.5-0.4c-2.2-1.6-4.4-3.3-6.7-4.9l-3.5-2.3
			c-1.2-0.8-2.3-1.6-3.5-2.2c-2.4-1.4-4.7-2.8-7.2-4l-3.7-1.8l-3.8-1.6l-1.9-0.8l-1.9-0.7l-3.9-1.4c-2.6-0.7-5.2-1.6-7.9-2.1
			c-1.3-0.3-2.6-0.6-4-0.8l-4-0.6c-2.7-0.3-5.4-0.6-8.1-0.6c-1.3-0.1-2.7-0.1-4-0.1c-1.3,0.1-2.7,0-4,0.1l-4,0.3l-4,0.5
			c-1.3,0.2-2.7,0.5-4,0.7c-1.3,0.2-2.6,0.6-3.9,0.9c-2.6,0.7-5.2,1.4-7.8,2.3c-2.6,0.9-5.1,1.9-7.6,2.9c-2.5,1.1-4.9,2.3-7.3,3.6
			c-2.4,1.3-4.7,2.7-6.9,4.1c-1.1,0.7-2.2,1.5-3.3,2.3c-0.5,0.4-1.1,0.8-1.6,1.2c-0.5,0.4-1.1,0.8-1.4,1.1l-0.7,0.6l-0.8,0.3l-7.5,3
			c-2.5,0.9-5,1.9-7.6,2.8l-3.8,1.3c-1.3,0.4-2.6,0.8-3.9,1.2c-2.6,0.7-5.2,1.5-7.8,2.1c-1.3,0.3-2.6,0.7-3.9,1l-4,0.8
			c-1.3,0.3-2.7,0.5-4,0.7l-4,0.7c-2.7,0.3-5.4,0.8-8.1,1c-1.4,0.1-2.7,0.3-4.1,0.3l-4.1,0.2c-1.4,0.1-2.7,0.1-4.1,0.1l-2.1,0
			l-2.1,0c-2.7,0-5.5-0.2-8.2-0.4l-4.1-0.4l-4.1-0.5c-2.7-0.4-5.4-0.9-8.1-1.4c-2.7-0.6-5.4-1.2-8.1-2c-2.7-0.8-5.3-1.6-7.9-2.6
			c-2.6-1-5.2-2-7.8-3.2c-1.3-0.6-2.6-1.2-3.8-1.9c-0.6-0.4-1.3-0.7-1.9-1.1l-1-0.6l-0.5-0.3l-0.6-0.4l1.7,0.9l-8.2-2.6
			c-2.7-0.9-5.5-1.6-8.2-2.4c-2.7-0.8-5.5-1.5-8.3-2.2c-2.8-0.8-5.5-1.4-8.3-2c-2.8-0.7-5.5-1.2-8.3-1.8c-2.8-0.6-5.6-1-8.4-1.5
			c-1.4-0.3-2.8-0.4-4.2-0.6l-4.2-0.6c-1.4-0.2-2.8-0.3-4.2-0.4c-1.4-0.1-2.8-0.3-4.2-0.4l-4.2-0.3c-1.4-0.1-2.8-0.1-4.2-0.1l-2.1,0
			l-2.1,0c-1.4,0-2.8,0-4.1,0.1l-4.1,0.2l-4.1,0.4c-1.3,0.2-2.7,0.4-4,0.6c-1.3,0.2-2.6,0.5-3.9,0.7c-1.3,0.3-2.6,0.6-3.9,0.9
			c-1.3,0.4-2.5,0.7-3.8,1.1c-2.5,0.8-4.8,1.8-7.1,2.9c-2.2,1.1-4.3,2.4-6.2,3.8c-1,0.7-1.8,1.5-2.6,2.2c-0.4,0.4-0.8,0.8-1.1,1.1
			l-0.4,0.5c-0.1,0.1-0.3,0.4-0.1,0.2l-2.9,2.8l-4.2,2.2c-1.4,0.7-2.8,1.5-4.3,2.1c-2.9,1.3-5.8,2.7-8.8,3.8c-1.5,0.6-3,1.2-4.5,1.7
			l-4.5,1.5l-2.3,0.8l-2.3,0.7l-4.6,1.3l-4.7,1.1l-2.3,0.6l-2.3,0.5c-1.6,0.3-3.1,0.6-4.7,0.9l-4.7,0.7c-1.6,0.3-3.2,0.4-4.8,0.6
			c-1.6,0.2-3.2,0.4-4.8,0.4l-4.8,0.3l-4.8,0.1c-1.6,0.1-3.2,0-4.8,0l-2.4,0l-2.4-0.1c-3.2-0.1-6.4-0.4-9.5-0.7l-4.7-0.6l-4.7-0.7
			c-3.1-0.5-6.3-1.1-9.4-1.8c-3.1-0.7-6.2-1.4-9.3-2.3c-1.5-0.4-3.1-0.9-4.6-1.3c-1.5-0.5-3-0.9-4.5-1.5c-3-1-6-2.2-9-3.4
			c-1.5-0.6-3-1.3-4.4-1.9c-0.7-0.3-1.5-0.7-2.2-1.1l-1.1-0.6l-1.2-0.7l1.6,0.7l-11.7-3.4c-3.9-1.1-7.9-2.1-11.8-3.1l-2.9-0.8
			l-3-0.7l-5.9-1.4c-3.9-1-7.9-1.7-11.9-2.6c-4-0.9-7.9-1.5-11.9-2.2c-2-0.4-4-0.7-6-1l-6-0.9c-2-0.3-4-0.5-6-0.8
			c-2-0.2-4-0.5-6-0.7c-4-0.3-8-0.8-12-1c-2-0.1-4-0.3-6-0.4l-6-0.2c-2-0.1-4,0-6,0c-2,0-4,0-6,0.1c-2,0.1-4,0.1-5.9,0.3l-5.9,0.5
			l-5.9,0.7l-5.8,0.9l-5.7,1.1c-1.9,0.5-3.8,0.8-5.7,1.4c-3.7,1-7.4,2.2-11,3.5c-3.5,1.4-7,3-10.1,4.8c-1.6,0.9-3.1,1.9-4.5,2.9
			c-0.7,0.5-1.4,1-2,1.6c-0.3,0.3-0.6,0.5-0.9,0.8l-0.4,0.4l-0.1,0.1l-0.1,0.1l0.1-0.1l-1.6,1.4l-5.2,3.1c-0.9,0.5-1.7,1-2.6,1.4
			l-2.7,1.4c-0.9,0.4-1.8,0.9-2.7,1.3l-2.7,1.2c-1.8,0.8-3.6,1.6-5.5,2.2c-1.9,0.6-3.7,1.3-5.6,1.9l-5.7,1.6
			c-1.9,0.5-3.8,0.9-5.7,1.4c-1,0.2-1.9,0.5-2.9,0.6l-2.9,0.5c-3.8,0.8-7.6,1.2-11.5,1.7c-3.8,0.4-7.7,0.8-11.5,1
			c-1.9,0.1-3.8,0.2-5.7,0.3c-1.9,0-3.8,0.1-5.7,0.1l-5.7,0c-1.9,0-3.8-0.1-5.7-0.1c-1.9,0-3.8-0.1-5.7-0.2
			c-1.9-0.1-3.8-0.2-5.7-0.3l-5.7-0.5l-5.6-0.6c-3.8-0.4-7.5-0.9-11.2-1.4c-3.7-0.5-7.5-1.1-11.2-1.7c-7.4-1.3-14.8-2.7-22.2-4.4
			c-3.7-0.8-7.3-1.7-11-2.6c-3.7-1-7.2-1.9-11-3.1l-0.5-0.2l-0.6-0.3c-3.1-1.6-6.2-3.3-9.3-4.8l-4.7-2.2l-2.4-1.1
			c-0.8-0.3-1.6-0.7-2.4-1l-4.8-2c-1.6-0.7-3.3-1.2-4.9-1.8c-1.6-0.6-3.3-1.2-4.9-1.7l-5-1.5c-1.7-0.5-3.3-1-5-1.4
			c-1.7-0.4-3.4-0.9-5-1.3c-3.4-0.7-6.8-1.5-10.2-2c-1.7-0.3-3.4-0.6-5.1-0.8l-5.2-0.6c-1.7-0.2-3.5-0.3-5.2-0.4l-2.6-0.2l-2.6-0.1
			c-3.5-0.2-7-0.1-10.4-0.1l-5.2,0.2c-1.7,0.1-3.5,0.3-5.2,0.4c-1.7,0.1-3.5,0.3-5.2,0.6l-2.6,0.3l-2.6,0.4l-2.6,0.4l-2.6,0.5
			c-1.7,0.3-3.4,0.7-5.1,1.1l-2.6,0.6l-2.5,0.7l-2.5,0.7l-2.5,0.7c-3.4,1-6.7,2.1-9.9,3.3c-3.3,1.2-6.5,2.5-9.7,4
			c-1.6,0.7-3.1,1.5-4.7,2.3c-0.8,0.4-1.5,0.8-2.3,1.2c-0.7,0.4-1.5,0.9-2.1,1.2l-0.4,0.2l-0.1,0.1c-3.2,1.3-6.4,2.6-9.6,3.8
			l-2.4,0.9l-2.5,0.8c-1.6,0.5-3.3,1.1-4.9,1.5c-3.3,1-6.6,1.8-10,2.6c-1.7,0.3-3.4,0.7-5.1,1c-1.7,0.3-3.4,0.6-5.1,0.8
			c-3.4,0.4-6.9,0.8-10.3,0.9l-2.6,0.1l-2.6,0c-1.7,0-3.5-0.1-5.2-0.2c-3.5-0.3-6.9-0.6-10.3-1.3c-3.4-0.6-6.8-1.5-10.1-2.5
			c-3.3-1.1-6.5-2.4-9.6-4c-3.1-1.6-6.1-3.4-8.8-5.8c-2.5-2.1-5.1-4.2-7.9-6c-2.8-1.7-5.7-3.3-8.8-4.5c-3.1-1.2-6.3-1.9-9.6-2.1
			c-3.3-0.2-6.6,0.1-9.8,1c-3.2,0.9-6.3,2.3-9.1,4.1C210.4,687.4,207.8,689.6,205.6,692.1z"/>
	</g>
</g>
</svg>
