<?xml version="1.0" encoding="utf-8"?>
<!-- Generator: Adobe Illustrator 19.1.0, SVG Export Plug-In . SVG Version: 6.00 Build 0)  -->
<!DOCTYPE svg PUBLIC "-//W3C//DTD SVG 1.1//EN" "http://www.w3.org/Graphics/SVG/1.1/DTD/svg11.dtd">
<svg version="1.1" xmlns="http://www.w3.org/2000/svg" xmlns:xlink="http://www.w3.org/1999/xlink" x="0px" y="0px"
	 width="1271.2px" height="401.9px" viewBox="0 0 1271.2 401.9" style="enable-background:new 0 0 1271.2 401.9;"
	 xml:space="preserve">
<style type="text/css">
	.st0{fill:#4DC8F0;}
</style>
<g id="Layer_4">
	<path class="st0" d="M1271.2,401.9H0L0,69.6c0,0,19.2-28,49.9,0c0,0,29.1,28,89-1c0,0,66.3-47.4,152,2.6c0,0,105.1,34.2,160.1-5.3
		c0,0,37.2-47.4,176.3-2.6c0,0,61.5,36.8,129.4-2.6c0,0,22.6-39.5,122.9-2.6c0,0,42.1,31.6,111.6,0c0,0,53.4-50,116.5,5.3
		c0,0,59.8,31.6,127.8-13.2c0,0,21.3-5.3,35.7,7.9V401.9z"/>
</g>
<g id="Layer_3">
</g>
<g id="Layer_1">
</g>
<g id="Layer_2">
	<g>
	</g>
	<g>
	</g>
	<g>
	</g>
	<g>
	</g>
	<g>
	</g>
	<g>
	</g>
</g>
</svg>
