<?xml version="1.0" encoding="utf-8"?>
<!-- Generator: Adobe Illustrator 19.1.0, SVG Export Plug-In . SVG Version: 6.00 Build 0)  -->
<!DOCTYPE svg PUBLIC "-//W3C//DTD SVG 1.1//EN" "http://www.w3.org/Graphics/SVG/1.1/DTD/svg11.dtd">
<svg version="1.1" xmlns="http://www.w3.org/2000/svg" xmlns:xlink="http://www.w3.org/1999/xlink" x="0px" y="0px"
	 width="1271.2px" height="220.8px" viewBox="0 0 1271.2 220.8" style="enable-background:new 0 0 1271.2 220.8;"
	 xml:space="preserve">
<style type="text/css">
	.st0{fill:#63CBE9;}
</style>
<g id="Layer_4">
	<path class="st0" d="M1271.2,220.8H0L0,54.7c0,0,19.2-14,49.9,0c0,0,29.1,14,89-0.5c0,0,66.3-23.7,152,1.3
		c0,0,105.1,17.1,160.1-2.6c0,0,37.2-23.7,176.3-1.3c0,0,61.5,18.4,129.4-1.3c0,0,22.6-19.7,122.9-1.3c0,0,42.1,15.8,111.6,0
		c0,0,53.4-25,116.5,2.6c0,0,59.8,15.8,127.8-6.6c0,0,21.3-2.6,35.7,3.9V220.8z"/>
</g>
<g id="Layer_3">
</g>
<g id="Layer_1">
</g>
<g id="Layer_2">
	<g>
	</g>
	<g>
	</g>
	<g>
	</g>
	<g>
	</g>
	<g>
	</g>
	<g>
	</g>
</g>
</svg>
